%TF.GenerationSoftware,KiCad,Pcbnew,7.0.1*%
%TF.CreationDate,2023-04-04T14:40:52+02:00*%
%TF.ProjectId,blades_v40,626c6164-6573-45f7-9634-302e6b696361,rev?*%
%TF.SameCoordinates,Original*%
%TF.FileFunction,Legend,Bot*%
%TF.FilePolarity,Positive*%
%FSLAX46Y46*%
G04 Gerber Fmt 4.6, Leading zero omitted, Abs format (unit mm)*
G04 Created by KiCad (PCBNEW 7.0.1) date 2023-04-04 14:40:52*
%MOMM*%
%LPD*%
G01*
G04 APERTURE LIST*
G04 Aperture macros list*
%AMRoundRect*
0 Rectangle with rounded corners*
0 $1 Rounding radius*
0 $2 $3 $4 $5 $6 $7 $8 $9 X,Y pos of 4 corners*
0 Add a 4 corners polygon primitive as box body*
4,1,4,$2,$3,$4,$5,$6,$7,$8,$9,$2,$3,0*
0 Add four circle primitives for the rounded corners*
1,1,$1+$1,$2,$3*
1,1,$1+$1,$4,$5*
1,1,$1+$1,$6,$7*
1,1,$1+$1,$8,$9*
0 Add four rect primitives between the rounded corners*
20,1,$1+$1,$2,$3,$4,$5,0*
20,1,$1+$1,$4,$5,$6,$7,0*
20,1,$1+$1,$6,$7,$8,$9,0*
20,1,$1+$1,$8,$9,$2,$3,0*%
%AMFreePoly0*
4,1,25,0.555211,1.340400,0.579933,1.323882,1.323882,0.579933,1.340400,0.555211,1.346200,0.526051,1.346200,-0.526051,1.340400,-0.555211,1.323882,-0.579933,0.579933,-1.323882,0.555211,-1.340400,0.526051,-1.346200,-0.526051,-1.346200,-0.555211,-1.340400,-0.579933,-1.323882,-1.323882,-0.579933,-1.340400,-0.555211,-1.346200,-0.526051,-1.346200,0.526051,-1.340400,0.555211,-1.323882,0.579933,
-0.579933,1.323882,-0.555211,1.340400,-0.526051,1.346200,0.526051,1.346200,0.555211,1.340400,0.555211,1.340400,$1*%
%AMFreePoly1*
4,1,25,0.397396,0.959400,0.422118,0.942882,0.942882,0.422118,0.959400,0.397396,0.965200,0.368236,0.965200,-0.368236,0.959400,-0.397396,0.942882,-0.422118,0.422118,-0.942882,0.397396,-0.959400,0.368236,-0.965200,-0.368236,-0.965200,-0.397396,-0.959400,-0.422118,-0.942882,-0.942882,-0.422118,-0.959400,-0.397396,-0.965200,-0.368236,-0.965200,0.368236,-0.959400,0.397396,-0.942882,0.422118,
-0.422118,0.942882,-0.397396,0.959400,-0.368236,0.965200,0.368236,0.965200,0.397396,0.959400,0.397396,0.959400,$1*%
%AMFreePoly2*
4,1,25,0.281665,0.680000,0.306387,0.663482,0.663482,0.306387,0.680000,0.281665,0.685800,0.252505,0.685800,-0.252505,0.680000,-0.281665,0.663482,-0.306387,0.306387,-0.663482,0.281665,-0.680000,0.252505,-0.685800,-0.252505,-0.685800,-0.281665,-0.680000,-0.306387,-0.663482,-0.663482,-0.306387,-0.680000,-0.281665,-0.685800,-0.252505,-0.685800,0.252505,-0.680000,0.281665,-0.663482,0.306387,
-0.306387,0.663482,-0.281665,0.680000,-0.252505,0.685800,0.252505,0.685800,0.281665,0.680000,0.281665,0.680000,$1*%
%AMFreePoly3*
4,1,25,0.258303,0.623600,0.283025,0.607082,0.607082,0.283025,0.623600,0.258303,0.629400,0.229143,0.629400,-0.229143,0.623600,-0.258303,0.607082,-0.283025,0.283025,-0.607082,0.258303,-0.623600,0.229143,-0.629400,-0.229143,-0.629400,-0.258303,-0.623600,-0.283025,-0.607082,-0.607082,-0.283025,-0.623600,-0.258303,-0.629400,-0.229143,-0.629400,0.229143,-0.623600,0.258303,-0.607082,0.283025,
-0.283025,0.607082,-0.258303,0.623600,-0.229143,0.629400,0.229143,0.629400,0.258303,0.623600,0.258303,0.623600,$1*%
%AMFreePoly4*
4,1,25,0.418438,1.010200,0.443160,0.993682,0.993682,0.443160,1.010200,0.418438,1.016000,0.389278,1.016000,-0.389278,1.010200,-0.418438,0.993682,-0.443160,0.443160,-0.993682,0.418438,-1.010200,0.389278,-1.016000,-0.389278,-1.016000,-0.418438,-1.010200,-0.443160,-0.993682,-0.993682,-0.443160,-1.010200,-0.418438,-1.016000,-0.389278,-1.016000,0.389278,-1.010200,0.418438,-0.993682,0.443160,
-0.443160,0.993682,-0.418438,1.010200,-0.389278,1.016000,0.389278,1.016000,0.418438,1.010200,0.418438,1.010200,$1*%
G04 Aperture macros list end*
%ADD10C,0.152400*%
%ADD11C,0.137160*%
%ADD12C,0.571500*%
%ADD13C,0.114300*%
%ADD14C,0.190500*%
%ADD15C,0.254000*%
%ADD16C,0.203200*%
%ADD17RoundRect,0.076200X0.939800X-0.939800X0.939800X0.939800X-0.939800X0.939800X-0.939800X-0.939800X0*%
%ADD18FreePoly0,90.000000*%
%ADD19O,2.152400X4.152400*%
%ADD20C,2.500000*%
%ADD21FreePoly1,180.000000*%
%ADD22FreePoly2,0.000000*%
%ADD23FreePoly2,180.000000*%
%ADD24FreePoly3,0.000000*%
%ADD25C,1.502400*%
%ADD26C,1.168400*%
%ADD27FreePoly4,180.000000*%
G04 APERTURE END LIST*
D10*
X143421100Y-89287300D02*
X143421100Y-90557300D01*
X151041100Y-89287300D02*
X151041100Y-90557300D01*
X145961100Y-89287300D02*
X145961100Y-90557300D01*
X153581100Y-89287300D02*
X153581100Y-90557300D01*
X148501100Y-89287300D02*
X148501100Y-90557300D01*
D11*
X136516291Y-78354051D02*
X136516291Y-77576811D01*
X136146177Y-78354051D02*
X136146177Y-77576811D01*
X136146177Y-77576811D02*
X135702040Y-78354051D01*
X135702040Y-78354051D02*
X135702040Y-77576811D01*
X135368938Y-77650834D02*
X135331926Y-77613822D01*
X135331926Y-77613822D02*
X135257904Y-77576811D01*
X135257904Y-77576811D02*
X135072846Y-77576811D01*
X135072846Y-77576811D02*
X134998824Y-77613822D01*
X134998824Y-77613822D02*
X134961812Y-77650834D01*
X134961812Y-77650834D02*
X134924801Y-77724857D01*
X134924801Y-77724857D02*
X134924801Y-77798880D01*
X134924801Y-77798880D02*
X134961812Y-77909914D01*
X134961812Y-77909914D02*
X135405949Y-78354051D01*
X135405949Y-78354051D02*
X134924801Y-78354051D01*
X133999514Y-78354051D02*
X133999514Y-77576811D01*
X133999514Y-77872902D02*
X133925492Y-77835891D01*
X133925492Y-77835891D02*
X133777446Y-77835891D01*
X133777446Y-77835891D02*
X133703423Y-77872902D01*
X133703423Y-77872902D02*
X133666412Y-77909914D01*
X133666412Y-77909914D02*
X133629400Y-77983937D01*
X133629400Y-77983937D02*
X133629400Y-78206005D01*
X133629400Y-78206005D02*
X133666412Y-78280028D01*
X133666412Y-78280028D02*
X133703423Y-78317040D01*
X133703423Y-78317040D02*
X133777446Y-78354051D01*
X133777446Y-78354051D02*
X133925492Y-78354051D01*
X133925492Y-78354051D02*
X133999514Y-78317040D01*
X133185263Y-78354051D02*
X133259286Y-78317040D01*
X133259286Y-78317040D02*
X133296297Y-78243017D01*
X133296297Y-78243017D02*
X133296297Y-77576811D01*
X132593080Y-78317040D02*
X132667103Y-78354051D01*
X132667103Y-78354051D02*
X132815149Y-78354051D01*
X132815149Y-78354051D02*
X132889171Y-78317040D01*
X132889171Y-78317040D02*
X132926183Y-78243017D01*
X132926183Y-78243017D02*
X132926183Y-77946925D01*
X132926183Y-77946925D02*
X132889171Y-77872902D01*
X132889171Y-77872902D02*
X132815149Y-77835891D01*
X132815149Y-77835891D02*
X132667103Y-77835891D01*
X132667103Y-77835891D02*
X132593080Y-77872902D01*
X132593080Y-77872902D02*
X132556069Y-77946925D01*
X132556069Y-77946925D02*
X132556069Y-78020948D01*
X132556069Y-78020948D02*
X132926183Y-78094971D01*
X131926874Y-78317040D02*
X132000897Y-78354051D01*
X132000897Y-78354051D02*
X132148943Y-78354051D01*
X132148943Y-78354051D02*
X132222965Y-78317040D01*
X132222965Y-78317040D02*
X132259977Y-78243017D01*
X132259977Y-78243017D02*
X132259977Y-77946925D01*
X132259977Y-77946925D02*
X132222965Y-77872902D01*
X132222965Y-77872902D02*
X132148943Y-77835891D01*
X132148943Y-77835891D02*
X132000897Y-77835891D01*
X132000897Y-77835891D02*
X131926874Y-77872902D01*
X131926874Y-77872902D02*
X131889863Y-77946925D01*
X131889863Y-77946925D02*
X131889863Y-78020948D01*
X131889863Y-78020948D02*
X132259977Y-78094971D01*
X131223657Y-78354051D02*
X131223657Y-77576811D01*
X131223657Y-78317040D02*
X131297679Y-78354051D01*
X131297679Y-78354051D02*
X131445725Y-78354051D01*
X131445725Y-78354051D02*
X131519748Y-78317040D01*
X131519748Y-78317040D02*
X131556759Y-78280028D01*
X131556759Y-78280028D02*
X131593771Y-78206005D01*
X131593771Y-78206005D02*
X131593771Y-77983937D01*
X131593771Y-77983937D02*
X131556759Y-77909914D01*
X131556759Y-77909914D02*
X131519748Y-77872902D01*
X131519748Y-77872902D02*
X131445725Y-77835891D01*
X131445725Y-77835891D02*
X131297679Y-77835891D01*
X131297679Y-77835891D02*
X131223657Y-77872902D01*
D12*
X181416928Y-124342112D02*
X180954285Y-124496326D01*
X180954285Y-124496326D02*
X180800071Y-124650540D01*
X180800071Y-124650540D02*
X180645857Y-124958969D01*
X180645857Y-124958969D02*
X180645857Y-125421612D01*
X180645857Y-125421612D02*
X180800071Y-125730040D01*
X180800071Y-125730040D02*
X180954285Y-125884255D01*
X180954285Y-125884255D02*
X181262714Y-126038469D01*
X181262714Y-126038469D02*
X182496428Y-126038469D01*
X182496428Y-126038469D02*
X182496428Y-122799969D01*
X182496428Y-122799969D02*
X181416928Y-122799969D01*
X181416928Y-122799969D02*
X181108500Y-122954183D01*
X181108500Y-122954183D02*
X180954285Y-123108397D01*
X180954285Y-123108397D02*
X180800071Y-123416826D01*
X180800071Y-123416826D02*
X180800071Y-123725255D01*
X180800071Y-123725255D02*
X180954285Y-124033683D01*
X180954285Y-124033683D02*
X181108500Y-124187897D01*
X181108500Y-124187897D02*
X181416928Y-124342112D01*
X181416928Y-124342112D02*
X182496428Y-124342112D01*
X178795285Y-126038469D02*
X179103714Y-125884255D01*
X179103714Y-125884255D02*
X179257928Y-125575826D01*
X179257928Y-125575826D02*
X179257928Y-122799969D01*
X176173643Y-126038469D02*
X176173643Y-124342112D01*
X176173643Y-124342112D02*
X176327857Y-124033683D01*
X176327857Y-124033683D02*
X176636285Y-123879469D01*
X176636285Y-123879469D02*
X177253143Y-123879469D01*
X177253143Y-123879469D02*
X177561571Y-124033683D01*
X176173643Y-125884255D02*
X176482071Y-126038469D01*
X176482071Y-126038469D02*
X177253143Y-126038469D01*
X177253143Y-126038469D02*
X177561571Y-125884255D01*
X177561571Y-125884255D02*
X177715785Y-125575826D01*
X177715785Y-125575826D02*
X177715785Y-125267397D01*
X177715785Y-125267397D02*
X177561571Y-124958969D01*
X177561571Y-124958969D02*
X177253143Y-124804755D01*
X177253143Y-124804755D02*
X176482071Y-124804755D01*
X176482071Y-124804755D02*
X176173643Y-124650540D01*
X173243572Y-126038469D02*
X173243572Y-122799969D01*
X173243572Y-125884255D02*
X173552000Y-126038469D01*
X173552000Y-126038469D02*
X174168857Y-126038469D01*
X174168857Y-126038469D02*
X174477286Y-125884255D01*
X174477286Y-125884255D02*
X174631500Y-125730040D01*
X174631500Y-125730040D02*
X174785714Y-125421612D01*
X174785714Y-125421612D02*
X174785714Y-124496326D01*
X174785714Y-124496326D02*
X174631500Y-124187897D01*
X174631500Y-124187897D02*
X174477286Y-124033683D01*
X174477286Y-124033683D02*
X174168857Y-123879469D01*
X174168857Y-123879469D02*
X173552000Y-123879469D01*
X173552000Y-123879469D02*
X173243572Y-124033683D01*
X170467715Y-125884255D02*
X170776143Y-126038469D01*
X170776143Y-126038469D02*
X171393001Y-126038469D01*
X171393001Y-126038469D02*
X171701429Y-125884255D01*
X171701429Y-125884255D02*
X171855643Y-125575826D01*
X171855643Y-125575826D02*
X171855643Y-124342112D01*
X171855643Y-124342112D02*
X171701429Y-124033683D01*
X171701429Y-124033683D02*
X171393001Y-123879469D01*
X171393001Y-123879469D02*
X170776143Y-123879469D01*
X170776143Y-123879469D02*
X170467715Y-124033683D01*
X170467715Y-124033683D02*
X170313501Y-124342112D01*
X170313501Y-124342112D02*
X170313501Y-124650540D01*
X170313501Y-124650540D02*
X171855643Y-124958969D01*
X169079786Y-125884255D02*
X168771358Y-126038469D01*
X168771358Y-126038469D02*
X168154501Y-126038469D01*
X168154501Y-126038469D02*
X167846072Y-125884255D01*
X167846072Y-125884255D02*
X167691858Y-125575826D01*
X167691858Y-125575826D02*
X167691858Y-125421612D01*
X167691858Y-125421612D02*
X167846072Y-125113183D01*
X167846072Y-125113183D02*
X168154501Y-124958969D01*
X168154501Y-124958969D02*
X168617144Y-124958969D01*
X168617144Y-124958969D02*
X168925572Y-124804755D01*
X168925572Y-124804755D02*
X169079786Y-124496326D01*
X169079786Y-124496326D02*
X169079786Y-124342112D01*
X169079786Y-124342112D02*
X168925572Y-124033683D01*
X168925572Y-124033683D02*
X168617144Y-123879469D01*
X168617144Y-123879469D02*
X168154501Y-123879469D01*
X168154501Y-123879469D02*
X167846072Y-124033683D01*
D13*
X141274799Y-105986742D02*
X141058899Y-106634442D01*
X141058899Y-106634442D02*
X140842999Y-105986742D01*
X140164456Y-105955900D02*
X140719628Y-106788657D01*
X139825185Y-105986742D02*
X139701813Y-105986742D01*
X139701813Y-105986742D02*
X139640128Y-106017585D01*
X139640128Y-106017585D02*
X139578442Y-106079271D01*
X139578442Y-106079271D02*
X139547599Y-106202642D01*
X139547599Y-106202642D02*
X139547599Y-106418542D01*
X139547599Y-106418542D02*
X139578442Y-106541914D01*
X139578442Y-106541914D02*
X139640128Y-106603600D01*
X139640128Y-106603600D02*
X139701813Y-106634442D01*
X139701813Y-106634442D02*
X139825185Y-106634442D01*
X139825185Y-106634442D02*
X139886871Y-106603600D01*
X139886871Y-106603600D02*
X139948556Y-106541914D01*
X139948556Y-106541914D02*
X139979399Y-106418542D01*
X139979399Y-106418542D02*
X139979399Y-106202642D01*
X139979399Y-106202642D02*
X139948556Y-106079271D01*
X139948556Y-106079271D02*
X139886871Y-106017585D01*
X139886871Y-106017585D02*
X139825185Y-105986742D01*
X138992428Y-106603600D02*
X139054113Y-106634442D01*
X139054113Y-106634442D02*
X139177485Y-106634442D01*
X139177485Y-106634442D02*
X139239170Y-106603600D01*
X139239170Y-106603600D02*
X139270013Y-106572757D01*
X139270013Y-106572757D02*
X139300856Y-106511071D01*
X139300856Y-106511071D02*
X139300856Y-106326014D01*
X139300856Y-106326014D02*
X139270013Y-106264328D01*
X139270013Y-106264328D02*
X139239170Y-106233485D01*
X139239170Y-106233485D02*
X139177485Y-106202642D01*
X139177485Y-106202642D02*
X139054113Y-106202642D01*
X139054113Y-106202642D02*
X138992428Y-106233485D01*
X138807371Y-106202642D02*
X138560628Y-106202642D01*
X138714842Y-105986742D02*
X138714842Y-106541914D01*
X138714842Y-106541914D02*
X138683999Y-106603600D01*
X138683999Y-106603600D02*
X138622314Y-106634442D01*
X138622314Y-106634442D02*
X138560628Y-106634442D01*
X137511971Y-106634442D02*
X137882085Y-106634442D01*
X137697028Y-106634442D02*
X137697028Y-105986742D01*
X137697028Y-105986742D02*
X137758714Y-106079271D01*
X137758714Y-106079271D02*
X137820399Y-106140957D01*
X137820399Y-106140957D02*
X137882085Y-106171800D01*
D10*
X162465404Y-125230260D02*
X162424280Y-125189136D01*
X162424280Y-125189136D02*
X162342033Y-125148012D01*
X162342033Y-125148012D02*
X162136414Y-125148012D01*
X162136414Y-125148012D02*
X162054166Y-125189136D01*
X162054166Y-125189136D02*
X162013042Y-125230260D01*
X162013042Y-125230260D02*
X161971919Y-125312508D01*
X161971919Y-125312508D02*
X161971919Y-125394755D01*
X161971919Y-125394755D02*
X162013042Y-125518127D01*
X162013042Y-125518127D02*
X162506528Y-126011612D01*
X162506528Y-126011612D02*
X161971919Y-126011612D01*
X161437309Y-125148012D02*
X161355062Y-125148012D01*
X161355062Y-125148012D02*
X161272814Y-125189136D01*
X161272814Y-125189136D02*
X161231690Y-125230260D01*
X161231690Y-125230260D02*
X161190566Y-125312508D01*
X161190566Y-125312508D02*
X161149443Y-125477003D01*
X161149443Y-125477003D02*
X161149443Y-125682622D01*
X161149443Y-125682622D02*
X161190566Y-125847117D01*
X161190566Y-125847117D02*
X161231690Y-125929365D01*
X161231690Y-125929365D02*
X161272814Y-125970489D01*
X161272814Y-125970489D02*
X161355062Y-126011612D01*
X161355062Y-126011612D02*
X161437309Y-126011612D01*
X161437309Y-126011612D02*
X161519557Y-125970489D01*
X161519557Y-125970489D02*
X161560681Y-125929365D01*
X161560681Y-125929365D02*
X161601804Y-125847117D01*
X161601804Y-125847117D02*
X161642928Y-125682622D01*
X161642928Y-125682622D02*
X161642928Y-125477003D01*
X161642928Y-125477003D02*
X161601804Y-125312508D01*
X161601804Y-125312508D02*
X161560681Y-125230260D01*
X161560681Y-125230260D02*
X161519557Y-125189136D01*
X161519557Y-125189136D02*
X161437309Y-125148012D01*
X160326967Y-126011612D02*
X160820452Y-126011612D01*
X160573709Y-126011612D02*
X160573709Y-125148012D01*
X160573709Y-125148012D02*
X160655957Y-125271384D01*
X160655957Y-125271384D02*
X160738205Y-125353631D01*
X160738205Y-125353631D02*
X160820452Y-125394755D01*
X159915729Y-126011612D02*
X159751233Y-126011612D01*
X159751233Y-126011612D02*
X159668986Y-125970489D01*
X159668986Y-125970489D02*
X159627862Y-125929365D01*
X159627862Y-125929365D02*
X159545614Y-125805993D01*
X159545614Y-125805993D02*
X159504491Y-125641498D01*
X159504491Y-125641498D02*
X159504491Y-125312508D01*
X159504491Y-125312508D02*
X159545614Y-125230260D01*
X159545614Y-125230260D02*
X159586738Y-125189136D01*
X159586738Y-125189136D02*
X159668986Y-125148012D01*
X159668986Y-125148012D02*
X159833481Y-125148012D01*
X159833481Y-125148012D02*
X159915729Y-125189136D01*
X159915729Y-125189136D02*
X159956852Y-125230260D01*
X159956852Y-125230260D02*
X159997976Y-125312508D01*
X159997976Y-125312508D02*
X159997976Y-125518127D01*
X159997976Y-125518127D02*
X159956852Y-125600374D01*
X159956852Y-125600374D02*
X159915729Y-125641498D01*
X159915729Y-125641498D02*
X159833481Y-125682622D01*
X159833481Y-125682622D02*
X159668986Y-125682622D01*
X159668986Y-125682622D02*
X159586738Y-125641498D01*
X159586738Y-125641498D02*
X159545614Y-125600374D01*
X159545614Y-125600374D02*
X159504491Y-125518127D01*
X158558643Y-125435879D02*
X158353024Y-126011612D01*
X158353024Y-126011612D02*
X158147405Y-125435879D01*
X157448300Y-125435879D02*
X157448300Y-126011612D01*
X157653919Y-125106889D02*
X157859538Y-125723746D01*
X157859538Y-125723746D02*
X157324929Y-125723746D01*
X162054066Y-124541789D02*
X162136314Y-124582912D01*
X162136314Y-124582912D02*
X162300809Y-124582912D01*
X162300809Y-124582912D02*
X162383057Y-124541789D01*
X162383057Y-124541789D02*
X162424180Y-124500665D01*
X162424180Y-124500665D02*
X162465304Y-124418417D01*
X162465304Y-124418417D02*
X162465304Y-124171674D01*
X162465304Y-124171674D02*
X162424180Y-124089427D01*
X162424180Y-124089427D02*
X162383057Y-124048303D01*
X162383057Y-124048303D02*
X162300809Y-124007179D01*
X162300809Y-124007179D02*
X162136314Y-124007179D01*
X162136314Y-124007179D02*
X162054066Y-124048303D01*
X161313837Y-124541789D02*
X161396085Y-124582912D01*
X161396085Y-124582912D02*
X161560580Y-124582912D01*
X161560580Y-124582912D02*
X161642828Y-124541789D01*
X161642828Y-124541789D02*
X161683951Y-124500665D01*
X161683951Y-124500665D02*
X161725075Y-124418417D01*
X161725075Y-124418417D02*
X161725075Y-124171674D01*
X161725075Y-124171674D02*
X161683951Y-124089427D01*
X161683951Y-124089427D02*
X161642828Y-124048303D01*
X161642828Y-124048303D02*
X161560580Y-124007179D01*
X161560580Y-124007179D02*
X161396085Y-124007179D01*
X161396085Y-124007179D02*
X161313837Y-124048303D01*
X160943722Y-124253922D02*
X160285742Y-124253922D01*
X159874503Y-124582912D02*
X159874503Y-123719312D01*
X159874503Y-124048303D02*
X159792256Y-124007179D01*
X159792256Y-124007179D02*
X159627761Y-124007179D01*
X159627761Y-124007179D02*
X159545513Y-124048303D01*
X159545513Y-124048303D02*
X159504389Y-124089427D01*
X159504389Y-124089427D02*
X159463265Y-124171674D01*
X159463265Y-124171674D02*
X159463265Y-124418417D01*
X159463265Y-124418417D02*
X159504389Y-124500665D01*
X159504389Y-124500665D02*
X159545513Y-124541789D01*
X159545513Y-124541789D02*
X159627761Y-124582912D01*
X159627761Y-124582912D02*
X159792256Y-124582912D01*
X159792256Y-124582912D02*
X159874503Y-124541789D01*
X159175399Y-124007179D02*
X158969780Y-124582912D01*
X158764161Y-124007179D02*
X158969780Y-124582912D01*
X158969780Y-124582912D02*
X159052028Y-124788531D01*
X159052028Y-124788531D02*
X159093151Y-124829655D01*
X159093151Y-124829655D02*
X159175399Y-124870779D01*
X158435170Y-124253922D02*
X157777190Y-124253922D01*
X157407075Y-124541789D02*
X157324828Y-124582912D01*
X157324828Y-124582912D02*
X157160332Y-124582912D01*
X157160332Y-124582912D02*
X157078085Y-124541789D01*
X157078085Y-124541789D02*
X157036961Y-124459541D01*
X157036961Y-124459541D02*
X157036961Y-124418417D01*
X157036961Y-124418417D02*
X157078085Y-124336169D01*
X157078085Y-124336169D02*
X157160332Y-124295046D01*
X157160332Y-124295046D02*
X157283704Y-124295046D01*
X157283704Y-124295046D02*
X157365951Y-124253922D01*
X157365951Y-124253922D02*
X157407075Y-124171674D01*
X157407075Y-124171674D02*
X157407075Y-124130550D01*
X157407075Y-124130550D02*
X157365951Y-124048303D01*
X157365951Y-124048303D02*
X157283704Y-124007179D01*
X157283704Y-124007179D02*
X157160332Y-124007179D01*
X157160332Y-124007179D02*
X157078085Y-124048303D01*
X156296732Y-124582912D02*
X156296732Y-124130550D01*
X156296732Y-124130550D02*
X156337856Y-124048303D01*
X156337856Y-124048303D02*
X156420104Y-124007179D01*
X156420104Y-124007179D02*
X156584599Y-124007179D01*
X156584599Y-124007179D02*
X156666846Y-124048303D01*
X156296732Y-124541789D02*
X156378980Y-124582912D01*
X156378980Y-124582912D02*
X156584599Y-124582912D01*
X156584599Y-124582912D02*
X156666846Y-124541789D01*
X156666846Y-124541789D02*
X156707970Y-124459541D01*
X156707970Y-124459541D02*
X156707970Y-124377293D01*
X156707970Y-124377293D02*
X156666846Y-124295046D01*
X156666846Y-124295046D02*
X156584599Y-124253922D01*
X156584599Y-124253922D02*
X156378980Y-124253922D01*
X156378980Y-124253922D02*
X156296732Y-124212798D01*
X155227513Y-124130550D02*
X154939647Y-124130550D01*
X154816275Y-124582912D02*
X155227513Y-124582912D01*
X155227513Y-124582912D02*
X155227513Y-123719312D01*
X155227513Y-123719312D02*
X154816275Y-123719312D01*
X154939647Y-123390322D02*
X155063018Y-123513693D01*
X154446161Y-124582912D02*
X154446161Y-124007179D01*
X154446161Y-124089427D02*
X154405038Y-124048303D01*
X154405038Y-124048303D02*
X154322790Y-124007179D01*
X154322790Y-124007179D02*
X154199419Y-124007179D01*
X154199419Y-124007179D02*
X154117171Y-124048303D01*
X154117171Y-124048303D02*
X154076047Y-124130550D01*
X154076047Y-124130550D02*
X154076047Y-124582912D01*
X154076047Y-124130550D02*
X154034923Y-124048303D01*
X154034923Y-124048303D02*
X153952676Y-124007179D01*
X153952676Y-124007179D02*
X153829304Y-124007179D01*
X153829304Y-124007179D02*
X153747057Y-124048303D01*
X153747057Y-124048303D02*
X153705933Y-124130550D01*
X153705933Y-124130550D02*
X153705933Y-124582912D01*
X153294694Y-124582912D02*
X153294694Y-124007179D01*
X153294694Y-123719312D02*
X153335818Y-123760436D01*
X153335818Y-123760436D02*
X153294694Y-123801560D01*
X153294694Y-123801560D02*
X153253571Y-123760436D01*
X153253571Y-123760436D02*
X153294694Y-123719312D01*
X153294694Y-123719312D02*
X153294694Y-123801560D01*
X152760085Y-124582912D02*
X152842333Y-124541789D01*
X152842333Y-124541789D02*
X152883456Y-124459541D01*
X152883456Y-124459541D02*
X152883456Y-123719312D01*
X152431094Y-124582912D02*
X152431094Y-124007179D01*
X152431094Y-123719312D02*
X152472218Y-123760436D01*
X152472218Y-123760436D02*
X152431094Y-123801560D01*
X152431094Y-123801560D02*
X152389971Y-123760436D01*
X152389971Y-123760436D02*
X152431094Y-123719312D01*
X152431094Y-123719312D02*
X152431094Y-123801560D01*
X151690866Y-124541789D02*
X151773114Y-124582912D01*
X151773114Y-124582912D02*
X151937609Y-124582912D01*
X151937609Y-124582912D02*
X152019856Y-124541789D01*
X152019856Y-124541789D02*
X152060980Y-124459541D01*
X152060980Y-124459541D02*
X152060980Y-124130550D01*
X152060980Y-124130550D02*
X152019856Y-124048303D01*
X152019856Y-124048303D02*
X151937609Y-124007179D01*
X151937609Y-124007179D02*
X151773114Y-124007179D01*
X151773114Y-124007179D02*
X151690866Y-124048303D01*
X151690866Y-124048303D02*
X151649742Y-124130550D01*
X151649742Y-124130550D02*
X151649742Y-124212798D01*
X151649742Y-124212798D02*
X152060980Y-124295046D01*
X150169285Y-123760436D02*
X150251532Y-123719312D01*
X150251532Y-123719312D02*
X150374904Y-123719312D01*
X150374904Y-123719312D02*
X150498275Y-123760436D01*
X150498275Y-123760436D02*
X150580523Y-123842684D01*
X150580523Y-123842684D02*
X150621646Y-123924931D01*
X150621646Y-123924931D02*
X150662770Y-124089427D01*
X150662770Y-124089427D02*
X150662770Y-124212798D01*
X150662770Y-124212798D02*
X150621646Y-124377293D01*
X150621646Y-124377293D02*
X150580523Y-124459541D01*
X150580523Y-124459541D02*
X150498275Y-124541789D01*
X150498275Y-124541789D02*
X150374904Y-124582912D01*
X150374904Y-124582912D02*
X150292656Y-124582912D01*
X150292656Y-124582912D02*
X150169285Y-124541789D01*
X150169285Y-124541789D02*
X150128161Y-124500665D01*
X150128161Y-124500665D02*
X150128161Y-124212798D01*
X150128161Y-124212798D02*
X150292656Y-124212798D01*
X149758046Y-124582912D02*
X149758046Y-124007179D01*
X149758046Y-123719312D02*
X149799170Y-123760436D01*
X149799170Y-123760436D02*
X149758046Y-123801560D01*
X149758046Y-123801560D02*
X149716923Y-123760436D01*
X149716923Y-123760436D02*
X149758046Y-123719312D01*
X149758046Y-123719312D02*
X149758046Y-123801560D01*
X149223437Y-124582912D02*
X149305685Y-124541789D01*
X149305685Y-124541789D02*
X149346808Y-124459541D01*
X149346808Y-124459541D02*
X149346808Y-123719312D01*
X148771075Y-124582912D02*
X148853323Y-124541789D01*
X148853323Y-124541789D02*
X148894446Y-124459541D01*
X148894446Y-124459541D02*
X148894446Y-123719312D01*
X148113094Y-124541789D02*
X148195342Y-124582912D01*
X148195342Y-124582912D02*
X148359837Y-124582912D01*
X148359837Y-124582912D02*
X148442084Y-124541789D01*
X148442084Y-124541789D02*
X148483208Y-124459541D01*
X148483208Y-124459541D02*
X148483208Y-124130550D01*
X148483208Y-124130550D02*
X148442084Y-124048303D01*
X148442084Y-124048303D02*
X148359837Y-124007179D01*
X148359837Y-124007179D02*
X148195342Y-124007179D01*
X148195342Y-124007179D02*
X148113094Y-124048303D01*
X148113094Y-124048303D02*
X148071970Y-124130550D01*
X148071970Y-124130550D02*
X148071970Y-124212798D01*
X148071970Y-124212798D02*
X148483208Y-124295046D01*
X147825227Y-124007179D02*
X147496236Y-124007179D01*
X147701855Y-123719312D02*
X147701855Y-124459541D01*
X147701855Y-124459541D02*
X147660732Y-124541789D01*
X147660732Y-124541789D02*
X147578484Y-124582912D01*
X147578484Y-124582912D02*
X147496236Y-124582912D01*
D11*
X150940226Y-114883011D02*
X150422066Y-115660251D01*
X150422066Y-114883011D02*
X150940226Y-115660251D01*
X150237009Y-115142091D02*
X149940917Y-115142091D01*
X150125974Y-115660251D02*
X150125974Y-114994045D01*
X150125974Y-114994045D02*
X150088963Y-114920022D01*
X150088963Y-114920022D02*
X150014940Y-114883011D01*
X150014940Y-114883011D02*
X149940917Y-114883011D01*
X149348735Y-115660251D02*
X149348735Y-115253125D01*
X149348735Y-115253125D02*
X149385746Y-115179102D01*
X149385746Y-115179102D02*
X149459769Y-115142091D01*
X149459769Y-115142091D02*
X149607815Y-115142091D01*
X149607815Y-115142091D02*
X149681837Y-115179102D01*
X149348735Y-115623240D02*
X149422757Y-115660251D01*
X149422757Y-115660251D02*
X149607815Y-115660251D01*
X149607815Y-115660251D02*
X149681837Y-115623240D01*
X149681837Y-115623240D02*
X149718849Y-115549217D01*
X149718849Y-115549217D02*
X149718849Y-115475194D01*
X149718849Y-115475194D02*
X149681837Y-115401171D01*
X149681837Y-115401171D02*
X149607815Y-115364160D01*
X149607815Y-115364160D02*
X149422757Y-115364160D01*
X149422757Y-115364160D02*
X149348735Y-115327148D01*
X148645518Y-115660251D02*
X148645518Y-114883011D01*
X148645518Y-115623240D02*
X148719540Y-115660251D01*
X148719540Y-115660251D02*
X148867586Y-115660251D01*
X148867586Y-115660251D02*
X148941609Y-115623240D01*
X148941609Y-115623240D02*
X148978620Y-115586228D01*
X148978620Y-115586228D02*
X149015632Y-115512205D01*
X149015632Y-115512205D02*
X149015632Y-115290137D01*
X149015632Y-115290137D02*
X148978620Y-115216114D01*
X148978620Y-115216114D02*
X148941609Y-115179102D01*
X148941609Y-115179102D02*
X148867586Y-115142091D01*
X148867586Y-115142091D02*
X148719540Y-115142091D01*
X148719540Y-115142091D02*
X148645518Y-115179102D01*
X147979312Y-115623240D02*
X148053335Y-115660251D01*
X148053335Y-115660251D02*
X148201381Y-115660251D01*
X148201381Y-115660251D02*
X148275403Y-115623240D01*
X148275403Y-115623240D02*
X148312415Y-115549217D01*
X148312415Y-115549217D02*
X148312415Y-115253125D01*
X148312415Y-115253125D02*
X148275403Y-115179102D01*
X148275403Y-115179102D02*
X148201381Y-115142091D01*
X148201381Y-115142091D02*
X148053335Y-115142091D01*
X148053335Y-115142091D02*
X147979312Y-115179102D01*
X147979312Y-115179102D02*
X147942301Y-115253125D01*
X147942301Y-115253125D02*
X147942301Y-115327148D01*
X147942301Y-115327148D02*
X148312415Y-115401171D01*
X147017014Y-115660251D02*
X147017014Y-114883011D01*
X147017014Y-115179102D02*
X146942992Y-115142091D01*
X146942992Y-115142091D02*
X146794946Y-115142091D01*
X146794946Y-115142091D02*
X146720923Y-115179102D01*
X146720923Y-115179102D02*
X146683912Y-115216114D01*
X146683912Y-115216114D02*
X146646900Y-115290137D01*
X146646900Y-115290137D02*
X146646900Y-115512205D01*
X146646900Y-115512205D02*
X146683912Y-115586228D01*
X146683912Y-115586228D02*
X146720923Y-115623240D01*
X146720923Y-115623240D02*
X146794946Y-115660251D01*
X146794946Y-115660251D02*
X146942992Y-115660251D01*
X146942992Y-115660251D02*
X147017014Y-115623240D01*
X146202763Y-115660251D02*
X146276786Y-115623240D01*
X146276786Y-115623240D02*
X146313797Y-115549217D01*
X146313797Y-115549217D02*
X146313797Y-114883011D01*
X145610580Y-115623240D02*
X145684603Y-115660251D01*
X145684603Y-115660251D02*
X145832649Y-115660251D01*
X145832649Y-115660251D02*
X145906671Y-115623240D01*
X145906671Y-115623240D02*
X145943683Y-115549217D01*
X145943683Y-115549217D02*
X145943683Y-115253125D01*
X145943683Y-115253125D02*
X145906671Y-115179102D01*
X145906671Y-115179102D02*
X145832649Y-115142091D01*
X145832649Y-115142091D02*
X145684603Y-115142091D01*
X145684603Y-115142091D02*
X145610580Y-115179102D01*
X145610580Y-115179102D02*
X145573569Y-115253125D01*
X145573569Y-115253125D02*
X145573569Y-115327148D01*
X145573569Y-115327148D02*
X145943683Y-115401171D01*
X144944374Y-115623240D02*
X145018397Y-115660251D01*
X145018397Y-115660251D02*
X145166443Y-115660251D01*
X145166443Y-115660251D02*
X145240465Y-115623240D01*
X145240465Y-115623240D02*
X145277477Y-115549217D01*
X145277477Y-115549217D02*
X145277477Y-115253125D01*
X145277477Y-115253125D02*
X145240465Y-115179102D01*
X145240465Y-115179102D02*
X145166443Y-115142091D01*
X145166443Y-115142091D02*
X145018397Y-115142091D01*
X145018397Y-115142091D02*
X144944374Y-115179102D01*
X144944374Y-115179102D02*
X144907363Y-115253125D01*
X144907363Y-115253125D02*
X144907363Y-115327148D01*
X144907363Y-115327148D02*
X145277477Y-115401171D01*
X144241157Y-115660251D02*
X144241157Y-114883011D01*
X144241157Y-115623240D02*
X144315179Y-115660251D01*
X144315179Y-115660251D02*
X144463225Y-115660251D01*
X144463225Y-115660251D02*
X144537248Y-115623240D01*
X144537248Y-115623240D02*
X144574259Y-115586228D01*
X144574259Y-115586228D02*
X144611271Y-115512205D01*
X144611271Y-115512205D02*
X144611271Y-115290137D01*
X144611271Y-115290137D02*
X144574259Y-115216114D01*
X144574259Y-115216114D02*
X144537248Y-115179102D01*
X144537248Y-115179102D02*
X144463225Y-115142091D01*
X144463225Y-115142091D02*
X144315179Y-115142091D01*
X144315179Y-115142091D02*
X144241157Y-115179102D01*
D14*
X163562795Y-86786609D02*
X164076842Y-87146442D01*
X163562795Y-87403466D02*
X164642295Y-87403466D01*
X164642295Y-87403466D02*
X164642295Y-86992228D01*
X164642295Y-86992228D02*
X164590890Y-86889418D01*
X164590890Y-86889418D02*
X164539485Y-86838013D01*
X164539485Y-86838013D02*
X164436676Y-86786609D01*
X164436676Y-86786609D02*
X164282461Y-86786609D01*
X164282461Y-86786609D02*
X164179652Y-86838013D01*
X164179652Y-86838013D02*
X164128247Y-86889418D01*
X164128247Y-86889418D02*
X164076842Y-86992228D01*
X164076842Y-86992228D02*
X164076842Y-87403466D01*
X163614200Y-85912728D02*
X163562795Y-86015537D01*
X163562795Y-86015537D02*
X163562795Y-86221156D01*
X163562795Y-86221156D02*
X163614200Y-86323966D01*
X163614200Y-86323966D02*
X163717009Y-86375370D01*
X163717009Y-86375370D02*
X164128247Y-86375370D01*
X164128247Y-86375370D02*
X164231057Y-86323966D01*
X164231057Y-86323966D02*
X164282461Y-86221156D01*
X164282461Y-86221156D02*
X164282461Y-86015537D01*
X164282461Y-86015537D02*
X164231057Y-85912728D01*
X164231057Y-85912728D02*
X164128247Y-85861323D01*
X164128247Y-85861323D02*
X164025438Y-85861323D01*
X164025438Y-85861323D02*
X163922628Y-86375370D01*
X163562795Y-84936037D02*
X164642295Y-84936037D01*
X163614200Y-84936037D02*
X163562795Y-85038846D01*
X163562795Y-85038846D02*
X163562795Y-85244465D01*
X163562795Y-85244465D02*
X163614200Y-85347275D01*
X163614200Y-85347275D02*
X163665604Y-85398680D01*
X163665604Y-85398680D02*
X163768414Y-85450084D01*
X163768414Y-85450084D02*
X164076842Y-85450084D01*
X164076842Y-85450084D02*
X164179652Y-85398680D01*
X164179652Y-85398680D02*
X164231057Y-85347275D01*
X164231057Y-85347275D02*
X164282461Y-85244465D01*
X164282461Y-85244465D02*
X164282461Y-85038846D01*
X164282461Y-85038846D02*
X164231057Y-84936037D01*
X163614200Y-83650918D02*
X163562795Y-83496704D01*
X163562795Y-83496704D02*
X163562795Y-83239680D01*
X163562795Y-83239680D02*
X163614200Y-83136871D01*
X163614200Y-83136871D02*
X163665604Y-83085466D01*
X163665604Y-83085466D02*
X163768414Y-83034061D01*
X163768414Y-83034061D02*
X163871223Y-83034061D01*
X163871223Y-83034061D02*
X163974033Y-83085466D01*
X163974033Y-83085466D02*
X164025438Y-83136871D01*
X164025438Y-83136871D02*
X164076842Y-83239680D01*
X164076842Y-83239680D02*
X164128247Y-83445299D01*
X164128247Y-83445299D02*
X164179652Y-83548109D01*
X164179652Y-83548109D02*
X164231057Y-83599514D01*
X164231057Y-83599514D02*
X164333866Y-83650918D01*
X164333866Y-83650918D02*
X164436676Y-83650918D01*
X164436676Y-83650918D02*
X164539485Y-83599514D01*
X164539485Y-83599514D02*
X164590890Y-83548109D01*
X164590890Y-83548109D02*
X164642295Y-83445299D01*
X164642295Y-83445299D02*
X164642295Y-83188276D01*
X164642295Y-83188276D02*
X164590890Y-83034061D01*
X164282461Y-82725633D02*
X164282461Y-82314395D01*
X164642295Y-82571419D02*
X163717009Y-82571419D01*
X163717009Y-82571419D02*
X163614200Y-82520014D01*
X163614200Y-82520014D02*
X163562795Y-82417204D01*
X163562795Y-82417204D02*
X163562795Y-82314395D01*
X163562795Y-81954562D02*
X164282461Y-81954562D01*
X164076842Y-81954562D02*
X164179652Y-81903157D01*
X164179652Y-81903157D02*
X164231057Y-81851752D01*
X164231057Y-81851752D02*
X164282461Y-81748943D01*
X164282461Y-81748943D02*
X164282461Y-81646133D01*
X163562795Y-81286300D02*
X164282461Y-81286300D01*
X164642295Y-81286300D02*
X164590890Y-81337704D01*
X164590890Y-81337704D02*
X164539485Y-81286300D01*
X164539485Y-81286300D02*
X164590890Y-81234895D01*
X164590890Y-81234895D02*
X164642295Y-81286300D01*
X164642295Y-81286300D02*
X164539485Y-81286300D01*
X164282461Y-80772252D02*
X163202961Y-80772252D01*
X164231057Y-80772252D02*
X164282461Y-80669442D01*
X164282461Y-80669442D02*
X164282461Y-80463823D01*
X164282461Y-80463823D02*
X164231057Y-80361014D01*
X164231057Y-80361014D02*
X164179652Y-80309609D01*
X164179652Y-80309609D02*
X164076842Y-80258204D01*
X164076842Y-80258204D02*
X163768414Y-80258204D01*
X163768414Y-80258204D02*
X163665604Y-80309609D01*
X163665604Y-80309609D02*
X163614200Y-80361014D01*
X163614200Y-80361014D02*
X163562795Y-80463823D01*
X163562795Y-80463823D02*
X163562795Y-80669442D01*
X163562795Y-80669442D02*
X163614200Y-80772252D01*
X163614200Y-79384324D02*
X163562795Y-79487133D01*
X163562795Y-79487133D02*
X163562795Y-79692752D01*
X163562795Y-79692752D02*
X163614200Y-79795562D01*
X163614200Y-79795562D02*
X163717009Y-79846966D01*
X163717009Y-79846966D02*
X164128247Y-79846966D01*
X164128247Y-79846966D02*
X164231057Y-79795562D01*
X164231057Y-79795562D02*
X164282461Y-79692752D01*
X164282461Y-79692752D02*
X164282461Y-79487133D01*
X164282461Y-79487133D02*
X164231057Y-79384324D01*
X164231057Y-79384324D02*
X164128247Y-79332919D01*
X164128247Y-79332919D02*
X164025438Y-79332919D01*
X164025438Y-79332919D02*
X163922628Y-79846966D01*
D10*
X149053852Y-92848743D02*
X149094976Y-92930990D01*
X149094976Y-92930990D02*
X149094976Y-93054362D01*
X149094976Y-93054362D02*
X149053852Y-93177733D01*
X149053852Y-93177733D02*
X148971604Y-93259981D01*
X148971604Y-93259981D02*
X148889357Y-93301104D01*
X148889357Y-93301104D02*
X148724861Y-93342228D01*
X148724861Y-93342228D02*
X148601490Y-93342228D01*
X148601490Y-93342228D02*
X148436995Y-93301104D01*
X148436995Y-93301104D02*
X148354747Y-93259981D01*
X148354747Y-93259981D02*
X148272500Y-93177733D01*
X148272500Y-93177733D02*
X148231376Y-93054362D01*
X148231376Y-93054362D02*
X148231376Y-92972114D01*
X148231376Y-92972114D02*
X148272500Y-92848743D01*
X148272500Y-92848743D02*
X148313623Y-92807619D01*
X148313623Y-92807619D02*
X148601490Y-92807619D01*
X148601490Y-92807619D02*
X148601490Y-92972114D01*
X148231376Y-92437504D02*
X149094976Y-92437504D01*
X149094976Y-92437504D02*
X148231376Y-91944019D01*
X148231376Y-91944019D02*
X149094976Y-91944019D01*
X148231376Y-91532780D02*
X149094976Y-91532780D01*
X149094976Y-91532780D02*
X149094976Y-91327161D01*
X149094976Y-91327161D02*
X149053852Y-91203790D01*
X149053852Y-91203790D02*
X148971604Y-91121542D01*
X148971604Y-91121542D02*
X148889357Y-91080419D01*
X148889357Y-91080419D02*
X148724861Y-91039295D01*
X148724861Y-91039295D02*
X148601490Y-91039295D01*
X148601490Y-91039295D02*
X148436995Y-91080419D01*
X148436995Y-91080419D02*
X148354747Y-91121542D01*
X148354747Y-91121542D02*
X148272500Y-91203790D01*
X148272500Y-91203790D02*
X148231376Y-91327161D01*
X148231376Y-91327161D02*
X148231376Y-91532780D01*
D13*
X158737299Y-105986742D02*
X158521399Y-106634442D01*
X158521399Y-106634442D02*
X158305499Y-105986742D01*
X157626956Y-105955900D02*
X158182128Y-106788657D01*
X157287685Y-105986742D02*
X157164313Y-105986742D01*
X157164313Y-105986742D02*
X157102628Y-106017585D01*
X157102628Y-106017585D02*
X157040942Y-106079271D01*
X157040942Y-106079271D02*
X157010099Y-106202642D01*
X157010099Y-106202642D02*
X157010099Y-106418542D01*
X157010099Y-106418542D02*
X157040942Y-106541914D01*
X157040942Y-106541914D02*
X157102628Y-106603600D01*
X157102628Y-106603600D02*
X157164313Y-106634442D01*
X157164313Y-106634442D02*
X157287685Y-106634442D01*
X157287685Y-106634442D02*
X157349371Y-106603600D01*
X157349371Y-106603600D02*
X157411056Y-106541914D01*
X157411056Y-106541914D02*
X157441899Y-106418542D01*
X157441899Y-106418542D02*
X157441899Y-106202642D01*
X157441899Y-106202642D02*
X157411056Y-106079271D01*
X157411056Y-106079271D02*
X157349371Y-106017585D01*
X157349371Y-106017585D02*
X157287685Y-105986742D01*
X156454928Y-106603600D02*
X156516613Y-106634442D01*
X156516613Y-106634442D02*
X156639985Y-106634442D01*
X156639985Y-106634442D02*
X156701670Y-106603600D01*
X156701670Y-106603600D02*
X156732513Y-106572757D01*
X156732513Y-106572757D02*
X156763356Y-106511071D01*
X156763356Y-106511071D02*
X156763356Y-106326014D01*
X156763356Y-106326014D02*
X156732513Y-106264328D01*
X156732513Y-106264328D02*
X156701670Y-106233485D01*
X156701670Y-106233485D02*
X156639985Y-106202642D01*
X156639985Y-106202642D02*
X156516613Y-106202642D01*
X156516613Y-106202642D02*
X156454928Y-106233485D01*
X156269871Y-106202642D02*
X156023128Y-106202642D01*
X156177342Y-105986742D02*
X156177342Y-106541914D01*
X156177342Y-106541914D02*
X156146499Y-106603600D01*
X156146499Y-106603600D02*
X156084814Y-106634442D01*
X156084814Y-106634442D02*
X156023128Y-106634442D01*
X155344585Y-106048428D02*
X155313742Y-106017585D01*
X155313742Y-106017585D02*
X155252057Y-105986742D01*
X155252057Y-105986742D02*
X155097842Y-105986742D01*
X155097842Y-105986742D02*
X155036157Y-106017585D01*
X155036157Y-106017585D02*
X155005314Y-106048428D01*
X155005314Y-106048428D02*
X154974471Y-106110114D01*
X154974471Y-106110114D02*
X154974471Y-106171800D01*
X154974471Y-106171800D02*
X155005314Y-106264328D01*
X155005314Y-106264328D02*
X155375428Y-106634442D01*
X155375428Y-106634442D02*
X154974471Y-106634442D01*
D10*
X143480366Y-94123580D02*
X143480366Y-93465600D01*
X143151376Y-93794590D02*
X143809357Y-93794590D01*
X143151376Y-92602000D02*
X143151376Y-93095485D01*
X143151376Y-92848742D02*
X144014976Y-92848742D01*
X144014976Y-92848742D02*
X143891604Y-92930990D01*
X143891604Y-92930990D02*
X143809357Y-93013238D01*
X143809357Y-93013238D02*
X143768233Y-93095485D01*
X143932728Y-92273009D02*
X143973852Y-92231885D01*
X143973852Y-92231885D02*
X144014976Y-92149638D01*
X144014976Y-92149638D02*
X144014976Y-91944019D01*
X144014976Y-91944019D02*
X143973852Y-91861771D01*
X143973852Y-91861771D02*
X143932728Y-91820647D01*
X143932728Y-91820647D02*
X143850480Y-91779524D01*
X143850480Y-91779524D02*
X143768233Y-91779524D01*
X143768233Y-91779524D02*
X143644861Y-91820647D01*
X143644861Y-91820647D02*
X143151376Y-92314133D01*
X143151376Y-92314133D02*
X143151376Y-91779524D01*
X144014976Y-91532781D02*
X143151376Y-91244914D01*
X143151376Y-91244914D02*
X144014976Y-90957048D01*
X153640366Y-94123580D02*
X153640366Y-93465600D01*
X153311376Y-92602000D02*
X153311376Y-93095485D01*
X153311376Y-92848742D02*
X154174976Y-92848742D01*
X154174976Y-92848742D02*
X154051604Y-92930990D01*
X154051604Y-92930990D02*
X153969357Y-93013238D01*
X153969357Y-93013238D02*
X153928233Y-93095485D01*
X154092728Y-92273009D02*
X154133852Y-92231885D01*
X154133852Y-92231885D02*
X154174976Y-92149638D01*
X154174976Y-92149638D02*
X154174976Y-91944019D01*
X154174976Y-91944019D02*
X154133852Y-91861771D01*
X154133852Y-91861771D02*
X154092728Y-91820647D01*
X154092728Y-91820647D02*
X154010480Y-91779524D01*
X154010480Y-91779524D02*
X153928233Y-91779524D01*
X153928233Y-91779524D02*
X153804861Y-91820647D01*
X153804861Y-91820647D02*
X153311376Y-92314133D01*
X153311376Y-92314133D02*
X153311376Y-91779524D01*
X154174976Y-91532781D02*
X153311376Y-91244914D01*
X153311376Y-91244914D02*
X154174976Y-90957048D01*
D15*
%TO.C,R195*%
X154982400Y-96843600D02*
X154982400Y-105543600D01*
X154982400Y-105543600D02*
X159482400Y-105543600D01*
X159482400Y-96843600D02*
X154982400Y-96843600D01*
X159482400Y-105543600D02*
X159482400Y-96843600D01*
D10*
X158333500Y-98643600D02*
G75*
G03*
X158333500Y-98643600I-1101100J0D01*
G01*
D15*
%TO.C,R139*%
X152851100Y-110056100D02*
X144151100Y-110056100D01*
X144151100Y-110056100D02*
X144151100Y-114556100D01*
X152851100Y-114556100D02*
X152851100Y-110056100D01*
X144151100Y-114556100D02*
X152851100Y-114556100D01*
D10*
X152152200Y-112306100D02*
G75*
G03*
X152152200Y-112306100I-1101100J0D01*
G01*
D16*
%TO.C,JP1*%
X138401100Y-89183600D02*
X146301100Y-89183600D01*
X146301100Y-89183600D02*
X150701100Y-89183600D01*
X150701100Y-89183600D02*
X158601100Y-89183600D01*
X150701100Y-89183600D02*
X150701100Y-87683600D01*
X158601100Y-89183600D02*
X158601100Y-80283600D01*
X146301100Y-87683600D02*
X146301100Y-89183600D01*
X150701100Y-87683600D02*
X146301100Y-87683600D01*
X154216100Y-87458600D02*
X152946100Y-87458600D01*
X138401100Y-80183600D02*
X138401100Y-89183600D01*
X158601100Y-80183600D02*
X138401100Y-80183600D01*
D15*
%TO.C,R198*%
X139674900Y-72749700D02*
X130974900Y-72749700D01*
X130974900Y-72749700D02*
X130974900Y-77249700D01*
X139674900Y-77249700D02*
X139674900Y-72749700D01*
X130974900Y-77249700D02*
X139674900Y-77249700D01*
D10*
X138976000Y-74999700D02*
G75*
G03*
X138976000Y-74999700I-1101100J0D01*
G01*
D15*
%TO.C,R196*%
X137519800Y-96843500D02*
X137519800Y-105543500D01*
X137519800Y-105543500D02*
X142019800Y-105543500D01*
X142019800Y-96843500D02*
X137519800Y-96843500D01*
X142019800Y-105543500D02*
X142019800Y-96843500D01*
D10*
X140870900Y-98643500D02*
G75*
G03*
X140870900Y-98643500I-1101100J0D01*
G01*
%TD*%
%LPC*%
D17*
%TO.C,R86*%
X133221100Y-91366100D03*
X130721100Y-91366100D03*
X128221100Y-91366100D03*
D18*
X135421100Y-84366100D03*
X126021100Y-84366100D03*
%TD*%
D17*
%TO.C,R179*%
X151001100Y-127896100D03*
X148501100Y-127896100D03*
X146001100Y-127896100D03*
D19*
X152901100Y-121196100D03*
X144101100Y-121196100D03*
%TD*%
D17*
%TO.C,R181*%
X175131100Y-127896100D03*
X172631100Y-127896100D03*
X170131100Y-127896100D03*
D19*
X177031100Y-121196100D03*
X168231100Y-121196100D03*
%TD*%
D20*
%TO.C,J6*%
X148501100Y-137071100D03*
D21*
X148501100Y-131038600D03*
X148501100Y-133737300D03*
X148501100Y-141674900D03*
%TD*%
D17*
%TO.C,R178*%
X138936100Y-127896100D03*
X136436100Y-127896100D03*
X133936100Y-127896100D03*
D19*
X140836100Y-121196100D03*
X132036100Y-121196100D03*
%TD*%
D17*
%TO.C,R81*%
X187196100Y-87256000D03*
X184696100Y-87256000D03*
X182196100Y-87256000D03*
D19*
X189096100Y-80556000D03*
X180296100Y-80556000D03*
%TD*%
D20*
%TO.C,J7*%
X160566100Y-137071100D03*
D21*
X160566100Y-131038600D03*
X160566100Y-133737300D03*
X160566100Y-141674900D03*
%TD*%
D20*
%TO.C,J13*%
X148501100Y-151676100D03*
D21*
X148501100Y-145643600D03*
X148501100Y-148342300D03*
X148501100Y-156279900D03*
%TD*%
D17*
%TO.C,R80*%
X114806100Y-87256000D03*
X112306100Y-87256000D03*
X109806100Y-87256000D03*
D19*
X116706100Y-80556000D03*
X107906100Y-80556000D03*
%TD*%
D17*
%TO.C,R18*%
X187196100Y-68188600D03*
X184696100Y-68188600D03*
X182196100Y-68188600D03*
D18*
X189396100Y-61188600D03*
X179996100Y-61188600D03*
%TD*%
D20*
%TO.C,J12*%
X136436100Y-151676100D03*
D21*
X136436100Y-145643600D03*
X136436100Y-148342300D03*
X136436100Y-156279900D03*
%TD*%
D22*
%TO.C,LED2*%
X171678500Y-55156100D03*
X174218500Y-55156100D03*
%TD*%
D17*
%TO.C,R127*%
X114806100Y-108193600D03*
X112306100Y-108193600D03*
X109806100Y-108193600D03*
D18*
X117006100Y-101193600D03*
X107606100Y-101193600D03*
%TD*%
D20*
%TO.C,J10*%
X112306100Y-151676100D03*
D21*
X112306100Y-145643600D03*
X112306100Y-148342300D03*
X112306100Y-156279900D03*
%TD*%
D20*
%TO.C,J15*%
X172631100Y-151676100D03*
D21*
X172631100Y-145643600D03*
X172631100Y-148342300D03*
X172631100Y-156279900D03*
%TD*%
D23*
%TO.C,LED1*%
X125323600Y-55156100D03*
X122783600Y-55156100D03*
%TD*%
D17*
%TO.C,R130*%
X187196100Y-108193600D03*
X184696100Y-108193600D03*
X182196100Y-108193600D03*
D18*
X189396100Y-101193600D03*
X179996100Y-101193600D03*
%TD*%
D17*
%TO.C,R177*%
X126871100Y-127896100D03*
X124371100Y-127896100D03*
X121871100Y-127896100D03*
D19*
X128771100Y-121196100D03*
X119971100Y-121196100D03*
%TD*%
D20*
%TO.C,J2*%
X184696100Y-122466100D03*
D21*
X184696100Y-116433600D03*
X184696100Y-119132300D03*
X184696100Y-127069900D03*
%TD*%
D20*
%TO.C,J1*%
X112306100Y-122466100D03*
D21*
X112306100Y-116433600D03*
X112306100Y-119132300D03*
X112306100Y-127069900D03*
%TD*%
D20*
%TO.C,J5*%
X136436100Y-137071100D03*
D21*
X136436100Y-131038600D03*
X136436100Y-133737300D03*
X136436100Y-141674900D03*
%TD*%
D17*
%TO.C,R17*%
X114806100Y-68188600D03*
X112306100Y-68188600D03*
X109806100Y-68188600D03*
D18*
X117006100Y-61188600D03*
X107606100Y-61188600D03*
%TD*%
D20*
%TO.C,J3*%
X112306100Y-137071100D03*
D21*
X112306100Y-131038600D03*
X112306100Y-133737300D03*
X112306100Y-141674900D03*
%TD*%
D17*
%TO.C,R128*%
X151001100Y-108193600D03*
X148501100Y-108193600D03*
X146001100Y-108193600D03*
D18*
X153201100Y-101193600D03*
X143801100Y-101193600D03*
%TD*%
D20*
%TO.C,J14*%
X160566100Y-151676100D03*
D21*
X160566100Y-145643600D03*
X160566100Y-148342300D03*
X160566100Y-156279900D03*
%TD*%
D20*
%TO.C,J16*%
X184696100Y-151676100D03*
D21*
X184696100Y-145643600D03*
X184696100Y-148342300D03*
X184696100Y-156279900D03*
%TD*%
D17*
%TO.C,R180*%
X163066100Y-127896100D03*
X160566100Y-127896100D03*
X158066100Y-127896100D03*
D19*
X164966100Y-121196100D03*
X156166100Y-121196100D03*
%TD*%
D20*
%TO.C,J9*%
X184696100Y-137071100D03*
D21*
X184696100Y-131038600D03*
X184696100Y-133737300D03*
X184696100Y-141674900D03*
%TD*%
D17*
%TO.C,R87*%
X168781100Y-91366100D03*
X166281100Y-91366100D03*
X163781100Y-91366100D03*
D18*
X170981100Y-84366100D03*
X161581100Y-84366100D03*
%TD*%
D20*
%TO.C,J11*%
X124371100Y-151676100D03*
D21*
X124371100Y-145643600D03*
X124371100Y-148342300D03*
X124371100Y-156279900D03*
%TD*%
D17*
%TO.C,R14*%
X138936100Y-66283600D03*
X136436100Y-66283600D03*
X133936100Y-66283600D03*
D18*
X141136100Y-59283600D03*
X131736100Y-59283600D03*
%TD*%
D24*
%TO.C,SW1*%
X153501100Y-74841100D03*
X143501100Y-74841100D03*
D25*
X151001100Y-72341100D03*
X148501100Y-72341100D03*
X146001100Y-72341100D03*
X151001100Y-77341100D03*
X148501100Y-77341100D03*
X146001100Y-77341100D03*
%TD*%
D20*
%TO.C,J4*%
X124371100Y-137071100D03*
D21*
X124371100Y-131038600D03*
X124371100Y-133737300D03*
X124371100Y-141674900D03*
%TD*%
D20*
%TO.C,J8*%
X172631100Y-137071100D03*
D21*
X172631100Y-131038600D03*
X172631100Y-133737300D03*
X172631100Y-141674900D03*
%TD*%
D17*
%TO.C,R15*%
X163066100Y-66283600D03*
X160566100Y-66283600D03*
X158066100Y-66283600D03*
D18*
X165266100Y-59283600D03*
X155866100Y-59283600D03*
%TD*%
D26*
%TO.C,R195*%
X157232400Y-98653600D03*
X157232400Y-101193600D03*
X157232400Y-103733600D03*
%TD*%
%TO.C,R139*%
X151041100Y-112306100D03*
X148501100Y-112306100D03*
X145961100Y-112306100D03*
%TD*%
D27*
%TO.C,JP1*%
X153581100Y-85953600D03*
X153581100Y-83413600D03*
X151041100Y-85953600D03*
X151041100Y-83413600D03*
X148501100Y-85953600D03*
X148501100Y-83413600D03*
X145961100Y-85953600D03*
X145961100Y-83413600D03*
X143421100Y-85953600D03*
X143421100Y-83413600D03*
%TD*%
D26*
%TO.C,R198*%
X137864900Y-74999700D03*
X135324900Y-74999700D03*
X132784900Y-74999700D03*
%TD*%
%TO.C,R196*%
X139769800Y-98653500D03*
X139769800Y-101193500D03*
X139769800Y-103733500D03*
%TD*%
M02*
