%TF.GenerationSoftware,KiCad,Pcbnew,7.0.1*%
%TF.CreationDate,2023-04-04T14:40:52+02:00*%
%TF.ProjectId,blades_v40,626c6164-6573-45f7-9634-302e6b696361,rev?*%
%TF.SameCoordinates,Original*%
%TF.FileFunction,Paste,Top*%
%TF.FilePolarity,Positive*%
%FSLAX46Y46*%
G04 Gerber Fmt 4.6, Leading zero omitted, Abs format (unit mm)*
G04 Created by KiCad (PCBNEW 7.0.1) date 2023-04-04 14:40:52*
%MOMM*%
%LPD*%
G01*
G04 APERTURE LIST*
%ADD10R,0.650000X0.750000*%
%ADD11R,0.750000X0.650000*%
%ADD12R,0.700000X0.500000*%
%ADD13R,0.500000X0.700000*%
%ADD14R,1.100000X1.000000*%
%ADD15R,1.400000X1.400000*%
%ADD16R,1.200000X0.350000*%
%ADD17R,1.000000X0.350000*%
%ADD18R,1.000000X1.100000*%
%ADD19R,2.200000X0.600000*%
%ADD20R,1.000000X1.800000*%
%ADD21R,0.850000X0.700000*%
%ADD22R,1.800000X1.600000*%
%ADD23R,0.700000X1.000000*%
%ADD24R,1.400000X2.200000*%
%ADD25R,1.600000X1.800000*%
G04 APERTURE END LIST*
D10*
%TO.C,C66*%
X125129800Y-96113600D03*
X123929800Y-96113600D03*
%TD*%
%TO.C,C70*%
X134883700Y-99923600D03*
X136083700Y-99923600D03*
%TD*%
D11*
%TO.C,C101*%
X178346100Y-118144900D03*
X178346100Y-116944900D03*
%TD*%
D12*
%TO.C,D30*%
X161424800Y-109924800D03*
X160124800Y-109924800D03*
%TD*%
D10*
%TO.C,R16*%
X144408700Y-60394800D03*
X145608700Y-60394800D03*
%TD*%
D13*
%TO.C,D35*%
X134531200Y-111259800D03*
X134531200Y-109959800D03*
%TD*%
D10*
%TO.C,R37*%
X165363600Y-66268700D03*
X166563600Y-66268700D03*
%TD*%
%TO.C,C92*%
X110683600Y-116751100D03*
X109483600Y-116751100D03*
%TD*%
D13*
%TO.C,D44*%
X107702400Y-115069900D03*
X107702400Y-113769900D03*
%TD*%
D11*
%TO.C,R63*%
X153898600Y-72336000D03*
X153898600Y-73536000D03*
%TD*%
D10*
%TO.C,R99*%
X185296100Y-90716100D03*
X184096100Y-90716100D03*
%TD*%
D14*
%TO.C,D51*%
X188562400Y-144691100D03*
X186862400Y-144691100D03*
%TD*%
D10*
%TO.C,C65*%
X170602400Y-95002300D03*
X171802400Y-95002300D03*
%TD*%
%TO.C,C23*%
X152663600Y-68173600D03*
X153863600Y-68173600D03*
%TD*%
D11*
%TO.C,R107*%
X182632300Y-92903700D03*
X182632300Y-91703700D03*
%TD*%
D10*
%TO.C,C68*%
X161324800Y-96113600D03*
X160124800Y-96113600D03*
%TD*%
D15*
%TO.C,D19*%
X147072500Y-94362300D03*
X147072500Y-90562300D03*
%TD*%
D11*
%TO.C,R121*%
X171678600Y-98618600D03*
X171678600Y-97418600D03*
%TD*%
D10*
%TO.C,C91*%
X135677300Y-112147500D03*
X136877300Y-112147500D03*
%TD*%
%TO.C,R43*%
X153863500Y-67062500D03*
X152663500Y-67062500D03*
%TD*%
%TO.C,R182*%
X110524800Y-131356100D03*
X109324800Y-131356100D03*
%TD*%
%TO.C,C7*%
X176565000Y-58648500D03*
X175365000Y-58648500D03*
%TD*%
D11*
%TO.C,C57*%
X185172400Y-93132300D03*
X185172400Y-94332300D03*
%TD*%
%TO.C,R116*%
X134372400Y-97418500D03*
X134372400Y-98618500D03*
%TD*%
%TO.C,C95*%
X131356100Y-117668600D03*
X131356100Y-116468600D03*
%TD*%
D10*
%TO.C,C89*%
X171872400Y-112147300D03*
X173072400Y-112147300D03*
%TD*%
D16*
%TO.C,IC6*%
X111217300Y-71326100D03*
X111217300Y-71976100D03*
X111217300Y-72626100D03*
X111217300Y-73276100D03*
X115617300Y-73276100D03*
X115617300Y-72626100D03*
X115617300Y-71976100D03*
X115617300Y-71326100D03*
%TD*%
D10*
%TO.C,R32*%
X117421100Y-64998700D03*
X118621100Y-64998700D03*
%TD*%
D17*
%TO.C,IC19*%
X127558800Y-110673600D03*
X127558800Y-111323600D03*
X127558800Y-111973600D03*
X127558800Y-112623600D03*
X127558800Y-113273600D03*
X127558800Y-113923600D03*
X127558800Y-114573600D03*
X133248400Y-114573600D03*
X133248400Y-113923600D03*
X133248400Y-113273600D03*
X133248400Y-112623600D03*
X133248400Y-111973600D03*
X133248400Y-111323600D03*
X133228100Y-110673600D03*
%TD*%
D11*
%TO.C,R13*%
X177552400Y-58683500D03*
X177552400Y-59883500D03*
%TD*%
D17*
%TO.C,IC20*%
X163753800Y-110673600D03*
X163753800Y-111323600D03*
X163753800Y-111973600D03*
X163753800Y-112623600D03*
X163753800Y-113273600D03*
X163753800Y-113923600D03*
X163753800Y-114573600D03*
X169443400Y-114573600D03*
X169443400Y-113923600D03*
X169443400Y-113273600D03*
X169443400Y-112623600D03*
X169443400Y-111973600D03*
X169443400Y-111323600D03*
X169423100Y-110673600D03*
%TD*%
D10*
%TO.C,R49*%
X131638600Y-70078500D03*
X130438600Y-70078500D03*
%TD*%
D11*
%TO.C,R2*%
X176917300Y-55121100D03*
X176917300Y-53921100D03*
%TD*%
D10*
%TO.C,R97*%
X185296200Y-89446100D03*
X184096200Y-89446100D03*
%TD*%
D11*
%TO.C,R65*%
X108337500Y-72812200D03*
X108337500Y-74012200D03*
%TD*%
D12*
%TO.C,D12*%
X181903800Y-74364900D03*
X180603800Y-74364900D03*
%TD*%
D11*
%TO.C,C10*%
X121672300Y-60906100D03*
X121672300Y-62106100D03*
%TD*%
%TO.C,R78*%
X130403600Y-77981100D03*
X130403600Y-76781100D03*
%TD*%
%TO.C,R55*%
X178822200Y-70907300D03*
X178822200Y-72107300D03*
%TD*%
D10*
%TO.C,C88*%
X161324900Y-112147200D03*
X160124900Y-112147200D03*
%TD*%
D18*
%TO.C,D57*%
X141833600Y-139713600D03*
X141833600Y-141413600D03*
%TD*%
D19*
%TO.C,IC4*%
X123041100Y-63728600D03*
X123041100Y-64998600D03*
X123041100Y-66268600D03*
X123041100Y-67538600D03*
X123041100Y-68808600D03*
X123041100Y-70078600D03*
X123041100Y-71348600D03*
X123041100Y-72618600D03*
X128241100Y-72618600D03*
X128241100Y-71348600D03*
X128241100Y-70078600D03*
X128241100Y-68808600D03*
X128241100Y-67538600D03*
X128241100Y-66268600D03*
X128241100Y-64998600D03*
X128241100Y-63728600D03*
%TD*%
D10*
%TO.C,R76*%
X120913600Y-77063500D03*
X122113600Y-77063500D03*
%TD*%
D18*
%TO.C,D52*%
X190093600Y-154318600D03*
X190093600Y-156018600D03*
%TD*%
D10*
%TO.C,C27*%
X186883500Y-70078500D03*
X185683500Y-70078500D03*
%TD*%
%TO.C,R112*%
X159331100Y-97383600D03*
X160531100Y-97383600D03*
%TD*%
D11*
%TO.C,C42*%
X118973600Y-80203600D03*
X118973600Y-79003600D03*
%TD*%
D10*
%TO.C,R146*%
X118964100Y-110401100D03*
X117764100Y-110401100D03*
%TD*%
D12*
%TO.C,D38*%
X109989900Y-110718700D03*
X108689900Y-110718700D03*
%TD*%
D11*
%TO.C,R61*%
X118656000Y-71383700D03*
X118656000Y-72583700D03*
%TD*%
%TO.C,R72*%
X122148600Y-76076100D03*
X122148600Y-74876100D03*
%TD*%
%TO.C,R164*%
X135642500Y-115445900D03*
X135642500Y-114245900D03*
%TD*%
D10*
%TO.C,C85*%
X172278700Y-108813600D03*
X171078700Y-108813600D03*
%TD*%
%TO.C,R46*%
X177517200Y-69919800D03*
X176317200Y-69919800D03*
%TD*%
%TO.C,R175*%
X177904800Y-115957300D03*
X179104800Y-115957300D03*
%TD*%
%TO.C,C69*%
X173072300Y-96113600D03*
X171872300Y-96113600D03*
%TD*%
D11*
%TO.C,R126*%
X172789800Y-99958600D03*
X172789800Y-101158600D03*
%TD*%
D10*
%TO.C,R92*%
X125923700Y-86588600D03*
X124723700Y-86588600D03*
%TD*%
%TO.C,R40*%
X117421000Y-66268800D03*
X118621000Y-66268800D03*
%TD*%
D12*
%TO.C,D24*%
X124912400Y-103019200D03*
X123612400Y-103019200D03*
%TD*%
D18*
%TO.C,D53*%
X117703600Y-125108600D03*
X117703600Y-126808600D03*
%TD*%
D10*
%TO.C,R151*%
X119732300Y-111512200D03*
X118532300Y-111512200D03*
%TD*%
D13*
%TO.C,D36*%
X170726100Y-111259900D03*
X170726100Y-109959900D03*
%TD*%
D10*
%TO.C,R89*%
X115446200Y-85477300D03*
X114246200Y-85477300D03*
%TD*%
D12*
%TO.C,D13*%
X186536000Y-74523500D03*
X187836000Y-74523500D03*
%TD*%
D10*
%TO.C,C87*%
X187112500Y-111829900D03*
X188312500Y-111829900D03*
%TD*%
%TO.C,R41*%
X119643200Y-66268800D03*
X120843200Y-66268800D03*
%TD*%
%TO.C,C49*%
X126945900Y-87858700D03*
X128145900Y-87858700D03*
%TD*%
D19*
%TO.C,IC13*%
X174158600Y-84048600D03*
X174158600Y-85318600D03*
X174158600Y-86588600D03*
X174158600Y-87858600D03*
X174158600Y-89128600D03*
X174158600Y-90398600D03*
X174158600Y-91668600D03*
X174158600Y-92938600D03*
X179358600Y-92938600D03*
X179358600Y-91668600D03*
X179358600Y-90398600D03*
X179358600Y-89128600D03*
X179358600Y-87858600D03*
X179358600Y-86588600D03*
X179358600Y-85318600D03*
X179358600Y-84048600D03*
%TD*%
D10*
%TO.C,R158*%
X173072500Y-113258700D03*
X171872500Y-113258700D03*
%TD*%
D11*
%TO.C,C9*%
X175329900Y-60747400D03*
X175329900Y-61947400D03*
%TD*%
D10*
%TO.C,R111*%
X137671200Y-97383500D03*
X136471200Y-97383500D03*
%TD*%
D11*
%TO.C,R167*%
X134531000Y-114246100D03*
X134531000Y-115446100D03*
%TD*%
D10*
%TO.C,R190*%
X186477400Y-131356100D03*
X187677400Y-131356100D03*
%TD*%
D13*
%TO.C,D47*%
X179457400Y-118244600D03*
X179457400Y-116944600D03*
%TD*%
D15*
%TO.C,D20*%
X157708700Y-83418600D03*
X157708700Y-87218600D03*
%TD*%
D10*
%TO.C,R48*%
X119961200Y-70078500D03*
X121161200Y-70078500D03*
%TD*%
%TO.C,R170*%
X118989200Y-114846200D03*
X117789200Y-114846200D03*
%TD*%
%TO.C,R108*%
X126876100Y-92938600D03*
X125676100Y-92938600D03*
%TD*%
D18*
%TO.C,D61*%
X143103600Y-136221100D03*
X143103600Y-137921100D03*
%TD*%
D10*
%TO.C,R96*%
X111706300Y-89446100D03*
X112906300Y-89446100D03*
%TD*%
%TO.C,R54*%
X137264900Y-71348600D03*
X138464900Y-71348600D03*
%TD*%
D13*
%TO.C,D43*%
X189458600Y-114911300D03*
X189458600Y-113611300D03*
%TD*%
D10*
%TO.C,C48*%
X169897300Y-87858600D03*
X168697300Y-87858600D03*
%TD*%
D13*
%TO.C,D4*%
X130721100Y-55884900D03*
X130721100Y-57184900D03*
%TD*%
D14*
%TO.C,D54*%
X187768600Y-129451100D03*
X186068600Y-129451100D03*
%TD*%
D10*
%TO.C,C16*%
X154974900Y-64998700D03*
X153774900Y-64998700D03*
%TD*%
D14*
%TO.C,D56*%
X174956100Y-145008600D03*
X176656100Y-145008600D03*
%TD*%
D10*
%TO.C,R82*%
X159578500Y-81032400D03*
X158378500Y-81032400D03*
%TD*%
D12*
%TO.C,D29*%
X135577400Y-109924800D03*
X136877400Y-109924800D03*
%TD*%
D10*
%TO.C,C82*%
X119891100Y-108178500D03*
X118691100Y-108178500D03*
%TD*%
%TO.C,R145*%
X178025500Y-110401000D03*
X179225500Y-110401000D03*
%TD*%
%TO.C,R143*%
X120050100Y-109289800D03*
X118850100Y-109289800D03*
%TD*%
D11*
%TO.C,R21*%
X120561000Y-62106000D03*
X120561000Y-60906000D03*
%TD*%
%TO.C,C56*%
X111829900Y-93132300D03*
X111829900Y-94332300D03*
%TD*%
D12*
%TO.C,D25*%
X116368700Y-108178500D03*
X117668700Y-108178500D03*
%TD*%
D10*
%TO.C,C8*%
X121637400Y-58648600D03*
X120437400Y-58648600D03*
%TD*%
D17*
%TO.C,IC3*%
X145656300Y-63048600D03*
X145656300Y-63698600D03*
X145656300Y-64348600D03*
X145656300Y-64998600D03*
X145656300Y-65648600D03*
X145656300Y-66298600D03*
X145656300Y-66948600D03*
X151345900Y-66948600D03*
X151345900Y-66298600D03*
X151345900Y-65648600D03*
X151345900Y-64998600D03*
X151345900Y-64348600D03*
X151345900Y-63698600D03*
X151325600Y-63048600D03*
%TD*%
D10*
%TO.C,C39*%
X140916100Y-76428600D03*
X142116100Y-76428600D03*
%TD*%
D13*
%TO.C,D1*%
X121037400Y-55379900D03*
X121037400Y-54079900D03*
%TD*%
D10*
%TO.C,R122*%
X124177500Y-98336000D03*
X122977500Y-98336000D03*
%TD*%
D11*
%TO.C,C33*%
X167233400Y-74964800D03*
X167233400Y-73764800D03*
%TD*%
D13*
%TO.C,D6*%
X167392400Y-60301100D03*
X167392400Y-59001100D03*
%TD*%
D11*
%TO.C,C80*%
X180886100Y-54803500D03*
X180886100Y-53603500D03*
%TD*%
D10*
%TO.C,C15*%
X175841200Y-64204900D03*
X177041200Y-64204900D03*
%TD*%
D11*
%TO.C,C61*%
X114528500Y-93926100D03*
X114528500Y-95126100D03*
%TD*%
%TO.C,C94*%
X129451300Y-116468600D03*
X129451300Y-117668600D03*
%TD*%
D13*
%TO.C,D5*%
X129609600Y-60301100D03*
X129609600Y-59001100D03*
%TD*%
D10*
%TO.C,R133*%
X173231100Y-103257400D03*
X172031100Y-103257400D03*
%TD*%
D11*
%TO.C,R6*%
X176441100Y-57661000D03*
X176441100Y-56461000D03*
%TD*%
D10*
%TO.C,C21*%
X130438600Y-67538600D03*
X131638600Y-67538600D03*
%TD*%
%TO.C,C14*%
X130121100Y-63728600D03*
X131321100Y-63728600D03*
%TD*%
%TO.C,R185*%
X132661100Y-131356100D03*
X133861100Y-131356100D03*
%TD*%
D19*
%TO.C,IC5*%
X168761100Y-63728600D03*
X168761100Y-64998600D03*
X168761100Y-66268600D03*
X168761100Y-67538600D03*
X168761100Y-68808600D03*
X168761100Y-70078600D03*
X168761100Y-71348600D03*
X168761100Y-72618600D03*
X173961100Y-72618600D03*
X173961100Y-71348600D03*
X173961100Y-70078600D03*
X173961100Y-68808600D03*
X173961100Y-67538600D03*
X173961100Y-66268600D03*
X173961100Y-64998600D03*
X173961100Y-63728600D03*
%TD*%
D10*
%TO.C,R102*%
X111706400Y-91986100D03*
X112906400Y-91986100D03*
%TD*%
D11*
%TO.C,R199*%
X115322300Y-54803600D03*
X115322300Y-53603600D03*
%TD*%
D10*
%TO.C,R109*%
X171078600Y-92938600D03*
X172278600Y-92938600D03*
%TD*%
%TO.C,R134*%
X136401100Y-103733500D03*
X135201100Y-103733500D03*
%TD*%
%TO.C,C93*%
X187836100Y-116751100D03*
X186636100Y-116751100D03*
%TD*%
D11*
%TO.C,R22*%
X119449800Y-62106100D03*
X119449800Y-60906100D03*
%TD*%
D17*
%TO.C,IC8*%
X168516300Y-74161100D03*
X168516300Y-74811100D03*
X168516300Y-75461100D03*
X168516300Y-76111100D03*
X168516300Y-76761100D03*
X168516300Y-77411100D03*
X168516300Y-78061100D03*
X174205900Y-78061100D03*
X174205900Y-77411100D03*
X174205900Y-76761100D03*
X174205900Y-76111100D03*
X174205900Y-75461100D03*
X174205900Y-74811100D03*
X174185600Y-74161100D03*
%TD*%
D10*
%TO.C,R138*%
X123771200Y-107543600D03*
X124971200Y-107543600D03*
%TD*%
D11*
%TO.C,R71*%
X119926100Y-76076100D03*
X119926100Y-74876100D03*
%TD*%
D16*
%TO.C,IC7*%
X181861000Y-71326200D03*
X181861000Y-71976200D03*
X181861000Y-72626200D03*
X181861000Y-73276200D03*
X186261000Y-73276200D03*
X186261000Y-72626200D03*
X186261000Y-71976200D03*
X186261000Y-71326200D03*
%TD*%
D10*
%TO.C,R186*%
X144726100Y-131356100D03*
X145926100Y-131356100D03*
%TD*%
D11*
%TO.C,C6*%
X121672400Y-57661100D03*
X121672400Y-56461100D03*
%TD*%
D10*
%TO.C,C58*%
X121866100Y-94208600D03*
X123066100Y-94208600D03*
%TD*%
%TO.C,R144*%
X176952200Y-109289800D03*
X178152200Y-109289800D03*
%TD*%
D11*
%TO.C,R118*%
X135483700Y-98618600D03*
X135483700Y-97418600D03*
%TD*%
D18*
%TO.C,D49*%
X117703600Y-154318600D03*
X117703600Y-156018600D03*
%TD*%
D10*
%TO.C,R33*%
X131638600Y-64998700D03*
X130438600Y-64998700D03*
%TD*%
%TO.C,R124*%
X162277300Y-99923600D03*
X161077300Y-99923600D03*
%TD*%
%TO.C,R42*%
X143138600Y-67062200D03*
X144338600Y-67062200D03*
%TD*%
D11*
%TO.C,C79*%
X116433500Y-54803500D03*
X116433500Y-53603500D03*
%TD*%
D12*
%TO.C,D10*%
X150341000Y-69285000D03*
X151641000Y-69285000D03*
%TD*%
D17*
%TO.C,IC14*%
X127558800Y-94163600D03*
X127558800Y-94813600D03*
X127558800Y-95463600D03*
X127558800Y-96113600D03*
X127558800Y-96763600D03*
X127558800Y-97413600D03*
X127558800Y-98063600D03*
X133248400Y-98063600D03*
X133248400Y-97413600D03*
X133248400Y-96763600D03*
X133248400Y-96113600D03*
X133248400Y-95463600D03*
X133248400Y-94813600D03*
X133228100Y-94163600D03*
%TD*%
D10*
%TO.C,C90*%
X125129800Y-112147400D03*
X123929800Y-112147400D03*
%TD*%
D11*
%TO.C,R50*%
X108337300Y-70748500D03*
X108337300Y-71948500D03*
%TD*%
D10*
%TO.C,R10*%
X117579800Y-57696200D03*
X118779800Y-57696200D03*
%TD*%
D13*
%TO.C,D22*%
X175012600Y-99779300D03*
X175012600Y-101079300D03*
%TD*%
D20*
%TO.C,P1*%
X154346100Y-79921100D03*
X151546100Y-79921100D03*
%TD*%
D10*
%TO.C,R12*%
X145608700Y-59283500D03*
X144408700Y-59283500D03*
%TD*%
D21*
%TO.C,L1*%
X152046100Y-88969800D03*
X153646100Y-88969800D03*
%TD*%
D18*
%TO.C,R194*%
X180671100Y-145961100D03*
X182371100Y-145961100D03*
%TD*%
D10*
%TO.C,C47*%
X122818600Y-82778600D03*
X124018600Y-82778600D03*
%TD*%
D11*
%TO.C,R165*%
X125164900Y-115446100D03*
X125164900Y-114246100D03*
%TD*%
D10*
%TO.C,R34*%
X165363600Y-64998700D03*
X166563600Y-64998700D03*
%TD*%
D11*
%TO.C,R5*%
X120561100Y-57661000D03*
X120561100Y-56461000D03*
%TD*%
D10*
%TO.C,C34*%
X111794800Y-74364900D03*
X110594800Y-74364900D03*
%TD*%
D22*
%TO.C,C52*%
X109131100Y-90268600D03*
X109131100Y-93068600D03*
%TD*%
D11*
%TO.C,R60*%
X189141000Y-71383600D03*
X189141000Y-72583600D03*
%TD*%
%TO.C,C51*%
X171202400Y-90363600D03*
X171202400Y-89163600D03*
%TD*%
D10*
%TO.C,R27*%
X124018800Y-62299800D03*
X122818800Y-62299800D03*
%TD*%
%TO.C,C26*%
X132661200Y-70078500D03*
X133861200Y-70078500D03*
%TD*%
D11*
%TO.C,C40*%
X175329800Y-77504700D03*
X175329800Y-76304700D03*
%TD*%
D10*
%TO.C,R85*%
X175206100Y-82778600D03*
X176406100Y-82778600D03*
%TD*%
D11*
%TO.C,R197*%
X121037400Y-76076200D03*
X121037400Y-74876200D03*
%TD*%
%TO.C,R120*%
X162629900Y-97418600D03*
X162629900Y-98618600D03*
%TD*%
%TO.C,R79*%
X167233600Y-77257300D03*
X167233600Y-78457300D03*
%TD*%
D10*
%TO.C,C64*%
X162594900Y-95002300D03*
X161394900Y-95002300D03*
%TD*%
%TO.C,C36*%
X128216100Y-74523600D03*
X129416100Y-74523600D03*
%TD*%
D11*
%TO.C,R172*%
X171837400Y-115446200D03*
X171837400Y-114246200D03*
%TD*%
D10*
%TO.C,R53*%
X165681200Y-71348500D03*
X166881200Y-71348500D03*
%TD*%
D19*
%TO.C,IC17*%
X163998600Y-99923600D03*
X163998600Y-101193600D03*
X163998600Y-102463600D03*
X163998600Y-103733600D03*
X163998600Y-105003600D03*
X163998600Y-106273600D03*
X163998600Y-107543600D03*
X163998600Y-108813600D03*
X169198600Y-108813600D03*
X169198600Y-107543600D03*
X169198600Y-106273600D03*
X169198600Y-105003600D03*
X169198600Y-103733600D03*
X169198600Y-102463600D03*
X169198600Y-101193600D03*
X169198600Y-99923600D03*
%TD*%
D11*
%TO.C,R168*%
X161359800Y-115446100D03*
X161359800Y-114246100D03*
%TD*%
D10*
%TO.C,C72*%
X135201200Y-102463600D03*
X136401200Y-102463600D03*
%TD*%
D11*
%TO.C,R56*%
X179933500Y-72107300D03*
X179933500Y-70907300D03*
%TD*%
D10*
%TO.C,R159*%
X177428600Y-113734800D03*
X178628600Y-113734800D03*
%TD*%
D19*
%TO.C,IC16*%
X127803600Y-99923600D03*
X127803600Y-101193600D03*
X127803600Y-102463600D03*
X127803600Y-103733600D03*
X127803600Y-105003600D03*
X127803600Y-106273600D03*
X127803600Y-107543600D03*
X127803600Y-108813600D03*
X133003600Y-108813600D03*
X133003600Y-107543600D03*
X133003600Y-106273600D03*
X133003600Y-105003600D03*
X133003600Y-103733600D03*
X133003600Y-102463600D03*
X133003600Y-101193600D03*
X133003600Y-99923600D03*
%TD*%
D11*
%TO.C,R106*%
X181521100Y-92903700D03*
X181521100Y-91703700D03*
%TD*%
D10*
%TO.C,R176*%
X119097300Y-115957400D03*
X117897300Y-115957400D03*
%TD*%
D18*
%TO.C,D58*%
X165963600Y-138126100D03*
X165963600Y-139826100D03*
%TD*%
D12*
%TO.C,D45*%
X115574900Y-115957100D03*
X116874900Y-115957100D03*
%TD*%
D17*
%TO.C,IC15*%
X163753800Y-94163600D03*
X163753800Y-94813600D03*
X163753800Y-95463600D03*
X163753800Y-96113600D03*
X163753800Y-96763600D03*
X163753800Y-97413600D03*
X163753800Y-98063600D03*
X169443400Y-98063600D03*
X169443400Y-97413600D03*
X169443400Y-96763600D03*
X169443400Y-96113600D03*
X169443400Y-95463600D03*
X169443400Y-94813600D03*
X169423100Y-94163600D03*
%TD*%
D10*
%TO.C,C20*%
X180533800Y-67538500D03*
X179333800Y-67538500D03*
%TD*%
%TO.C,C31*%
X177041200Y-72618700D03*
X175841200Y-72618700D03*
%TD*%
%TO.C,R9*%
X179422300Y-57696100D03*
X178222300Y-57696100D03*
%TD*%
%TO.C,R154*%
X187112300Y-112941200D03*
X188312300Y-112941200D03*
%TD*%
D22*
%TO.C,C53*%
X187871100Y-90268600D03*
X187871100Y-93068600D03*
%TD*%
D13*
%TO.C,D16*%
X179616100Y-74141300D03*
X179616100Y-75441300D03*
%TD*%
D10*
%TO.C,C62*%
X126400000Y-95002200D03*
X125200000Y-95002200D03*
%TD*%
D11*
%TO.C,C46*%
X176441100Y-81791100D03*
X176441100Y-80591100D03*
%TD*%
D13*
%TO.C,D18*%
X189458700Y-75569800D03*
X189458700Y-76869800D03*
%TD*%
D11*
%TO.C,R77*%
X165011400Y-78457300D03*
X165011400Y-77257300D03*
%TD*%
%TO.C,R67*%
X189458500Y-73447400D03*
X189458500Y-74647400D03*
%TD*%
D10*
%TO.C,R152*%
X177428600Y-111512300D03*
X178628600Y-111512300D03*
%TD*%
%TO.C,C78*%
X173231000Y-105479800D03*
X172031000Y-105479800D03*
%TD*%
D11*
%TO.C,R24*%
X130721400Y-61223700D03*
X130721400Y-62423700D03*
%TD*%
D10*
%TO.C,R156*%
X123929800Y-113258600D03*
X125129800Y-113258600D03*
%TD*%
D23*
%TO.C,IC10*%
X156441100Y-79751100D03*
X158341100Y-79751100D03*
X157391100Y-77551100D03*
%TD*%
D10*
%TO.C,R150*%
X161324900Y-111036200D03*
X160124900Y-111036200D03*
%TD*%
%TO.C,R93*%
X171078600Y-86588600D03*
X172278600Y-86588600D03*
%TD*%
%TO.C,R62*%
X137265000Y-72459800D03*
X138465000Y-72459800D03*
%TD*%
D11*
%TO.C,R117*%
X170567400Y-97418500D03*
X170567400Y-98618500D03*
%TD*%
D10*
%TO.C,R3*%
X117579900Y-56425900D03*
X118779900Y-56425900D03*
%TD*%
%TO.C,R70*%
X163141000Y-74999600D03*
X164341000Y-74999600D03*
%TD*%
%TO.C,R31*%
X166881100Y-63728700D03*
X165681100Y-63728700D03*
%TD*%
%TO.C,R110*%
X124177500Y-97224700D03*
X122977500Y-97224700D03*
%TD*%
%TO.C,R36*%
X131638600Y-66268600D03*
X130438600Y-66268600D03*
%TD*%
%TO.C,R23*%
X151641200Y-61664800D03*
X150441200Y-61664800D03*
%TD*%
%TO.C,C29*%
X116398600Y-70237200D03*
X115198600Y-70237200D03*
%TD*%
%TO.C,R173*%
X108690000Y-115163500D03*
X109890000Y-115163500D03*
%TD*%
D11*
%TO.C,R105*%
X114528500Y-92903500D03*
X114528500Y-91703500D03*
%TD*%
%TO.C,R166*%
X126276100Y-114246100D03*
X126276100Y-115446100D03*
%TD*%
%TO.C,R119*%
X161518600Y-98618600D03*
X161518600Y-97418600D03*
%TD*%
D13*
%TO.C,D2*%
X175806100Y-55379800D03*
X175806100Y-54079800D03*
%TD*%
D17*
%TO.C,IC2*%
X122796300Y-57016100D03*
X122796300Y-57666100D03*
X122796300Y-58316100D03*
X122796300Y-58966100D03*
X122796300Y-59616100D03*
X122796300Y-60266100D03*
X122796300Y-60916100D03*
X128485900Y-60916100D03*
X128485900Y-60266100D03*
X128485900Y-59616100D03*
X128485900Y-58966100D03*
X128485900Y-58316100D03*
X128485900Y-57666100D03*
X128465600Y-57016100D03*
%TD*%
D10*
%TO.C,C84*%
X136083600Y-108813600D03*
X134883600Y-108813600D03*
%TD*%
%TO.C,R95*%
X171078600Y-87858600D03*
X172278600Y-87858600D03*
%TD*%
%TO.C,R84*%
X118691200Y-82778600D03*
X119891200Y-82778600D03*
%TD*%
%TO.C,C28*%
X164658600Y-70078600D03*
X163458600Y-70078600D03*
%TD*%
%TO.C,C17*%
X143227400Y-65157400D03*
X142027400Y-65157400D03*
%TD*%
D13*
%TO.C,D21*%
X121751700Y-99779300D03*
X121751700Y-101079300D03*
%TD*%
D11*
%TO.C,R125*%
X125958600Y-99958600D03*
X125958600Y-101158600D03*
%TD*%
D10*
%TO.C,R136*%
X123771000Y-104051100D03*
X124971000Y-104051100D03*
%TD*%
D11*
%TO.C,C13*%
X167392500Y-61223500D03*
X167392500Y-62423500D03*
%TD*%
D14*
%TO.C,D50*%
X109074900Y-144056100D03*
X110774900Y-144056100D03*
%TD*%
D10*
%TO.C,R90*%
X181556100Y-85477300D03*
X182756100Y-85477300D03*
%TD*%
%TO.C,C74*%
X173231200Y-104368700D03*
X172031200Y-104368700D03*
%TD*%
D24*
%TO.C,C54*%
X151993600Y-93903600D03*
X151993600Y-90703600D03*
%TD*%
D11*
%TO.C,R57*%
X121196100Y-72583500D03*
X121196100Y-71383500D03*
%TD*%
%TO.C,C96*%
X165646100Y-116468600D03*
X165646100Y-117668600D03*
%TD*%
D10*
%TO.C,C30*%
X131321200Y-72618700D03*
X130121200Y-72618700D03*
%TD*%
D11*
%TO.C,C97*%
X167551100Y-117668600D03*
X167551100Y-116468600D03*
%TD*%
D10*
%TO.C,R83*%
X139646000Y-81349900D03*
X140846000Y-81349900D03*
%TD*%
%TO.C,C98*%
X182597300Y-117068600D03*
X181397300Y-117068600D03*
%TD*%
%TO.C,R101*%
X171078600Y-91668600D03*
X172278600Y-91668600D03*
%TD*%
D12*
%TO.C,D37*%
X187012200Y-110718600D03*
X188312200Y-110718600D03*
%TD*%
%TO.C,D31*%
X171772400Y-109924800D03*
X173072400Y-109924800D03*
%TD*%
D10*
%TO.C,C11*%
X144408700Y-61506100D03*
X145608700Y-61506100D03*
%TD*%
%TO.C,R149*%
X171872400Y-111036100D03*
X173072400Y-111036100D03*
%TD*%
D13*
%TO.C,D11*%
X109448600Y-72871000D03*
X109448600Y-74171000D03*
%TD*%
D10*
%TO.C,C2*%
X166951300Y-53886200D03*
X168151300Y-53886200D03*
%TD*%
D13*
%TO.C,D48*%
X117703500Y-118244900D03*
X117703500Y-116944900D03*
%TD*%
D10*
%TO.C,R103*%
X185296100Y-91986100D03*
X184096100Y-91986100D03*
%TD*%
%TO.C,R113*%
X172666200Y-97383600D03*
X173866200Y-97383600D03*
%TD*%
D13*
%TO.C,D3*%
X166281100Y-55884800D03*
X166281100Y-57184800D03*
%TD*%
D14*
%TO.C,R188*%
X166757400Y-135381100D03*
X166757400Y-133681100D03*
%TD*%
D10*
%TO.C,R142*%
X123771000Y-108813600D03*
X124971000Y-108813600D03*
%TD*%
%TO.C,R45*%
X176158600Y-68808700D03*
X177358600Y-68808700D03*
%TD*%
%TO.C,C38*%
X158308600Y-76269800D03*
X157108600Y-76269800D03*
%TD*%
%TO.C,C19*%
X176158600Y-67538500D03*
X177358600Y-67538500D03*
%TD*%
D23*
%TO.C,IC11*%
X140883600Y-80068600D03*
X142783600Y-80068600D03*
X141833600Y-77868600D03*
%TD*%
D18*
%TO.C,R193*%
X158241100Y-145961100D03*
X156541100Y-145961100D03*
%TD*%
D10*
%TO.C,C86*%
X109889800Y-111829700D03*
X108689800Y-111829700D03*
%TD*%
D11*
%TO.C,R59*%
X188029800Y-72583600D03*
X188029800Y-71383600D03*
%TD*%
D13*
%TO.C,D34*%
X126276100Y-111259800D03*
X126276100Y-109959800D03*
%TD*%
D10*
%TO.C,R29*%
X143297400Y-63410900D03*
X144497400Y-63410900D03*
%TD*%
D12*
%TO.C,D7*%
X145261200Y-68173600D03*
X146561200Y-68173600D03*
%TD*%
D17*
%TO.C,IC21*%
X180263800Y-110673600D03*
X180263800Y-111323600D03*
X180263800Y-111973600D03*
X180263800Y-112623600D03*
X180263800Y-113273600D03*
X180263800Y-113923600D03*
X180263800Y-114573600D03*
X185953400Y-114573600D03*
X185953400Y-113923600D03*
X185953400Y-113273600D03*
X185953400Y-112623600D03*
X185953400Y-111973600D03*
X185953400Y-111323600D03*
X185933100Y-110673600D03*
%TD*%
D11*
%TO.C,R58*%
X117544900Y-72583600D03*
X117544900Y-71383600D03*
%TD*%
D12*
%TO.C,D26*%
X180633600Y-108178500D03*
X179333600Y-108178500D03*
%TD*%
D10*
%TO.C,R52*%
X131638600Y-71348500D03*
X130438600Y-71348500D03*
%TD*%
D11*
%TO.C,C60*%
X182632400Y-93926000D03*
X182632400Y-95126000D03*
%TD*%
D10*
%TO.C,R44*%
X179581200Y-68808500D03*
X178381200Y-68808500D03*
%TD*%
D11*
%TO.C,R69*%
X176441000Y-74964800D03*
X176441000Y-73764800D03*
%TD*%
D10*
%TO.C,C22*%
X118532400Y-67538700D03*
X119732400Y-67538700D03*
%TD*%
%TO.C,R64*%
X178698600Y-73094800D03*
X179898600Y-73094800D03*
%TD*%
%TO.C,C73*%
X161801100Y-102463600D03*
X160601100Y-102463600D03*
%TD*%
D25*
%TO.C,C45*%
X174983600Y-81191100D03*
X172183600Y-81191100D03*
%TD*%
D14*
%TO.C,R184*%
X130562400Y-135381100D03*
X130562400Y-133681100D03*
%TD*%
D12*
%TO.C,D41*%
X109989900Y-114052400D03*
X108689900Y-114052400D03*
%TD*%
D10*
%TO.C,R153*%
X109889800Y-112940800D03*
X108689800Y-112940800D03*
%TD*%
D11*
%TO.C,C32*%
X175329900Y-74964700D03*
X175329900Y-73764700D03*
%TD*%
%TO.C,R1*%
X120084800Y-55121100D03*
X120084800Y-53921100D03*
%TD*%
D10*
%TO.C,R28*%
X142186100Y-62299800D03*
X143386100Y-62299800D03*
%TD*%
D11*
%TO.C,C100*%
X118814900Y-118144800D03*
X118814900Y-116944800D03*
%TD*%
D10*
%TO.C,C18*%
X166563600Y-67538500D03*
X165363600Y-67538500D03*
%TD*%
%TO.C,R38*%
X177358600Y-66268700D03*
X176158600Y-66268700D03*
%TD*%
D11*
%TO.C,R114*%
X125164900Y-98459800D03*
X125164900Y-97259800D03*
%TD*%
%TO.C,R11*%
X119449900Y-58683500D03*
X119449900Y-59883500D03*
%TD*%
D10*
%TO.C,R39*%
X179581000Y-66268700D03*
X178381000Y-66268700D03*
%TD*%
D11*
%TO.C,R8*%
X167392400Y-56461100D03*
X167392400Y-57661100D03*
%TD*%
D10*
%TO.C,C25*%
X118532300Y-68808500D03*
X119732300Y-68808500D03*
%TD*%
%TO.C,C24*%
X144338500Y-68173700D03*
X143138500Y-68173700D03*
%TD*%
D12*
%TO.C,D8*%
X151741000Y-68173600D03*
X150441000Y-68173600D03*
%TD*%
%TO.C,D32*%
X125229800Y-109924900D03*
X123929800Y-109924900D03*
%TD*%
D10*
%TO.C,C41*%
X121548600Y-78333500D03*
X122748600Y-78333500D03*
%TD*%
D25*
%TO.C,C44*%
X122653600Y-80556100D03*
X125453600Y-80556100D03*
%TD*%
D24*
%TO.C,C55*%
X143738600Y-90703600D03*
X143738600Y-93903600D03*
%TD*%
D11*
%TO.C,C12*%
X129609900Y-61223500D03*
X129609900Y-62423500D03*
%TD*%
D10*
%TO.C,C63*%
X134407200Y-95002300D03*
X135607200Y-95002300D03*
%TD*%
%TO.C,C77*%
X123771000Y-105082800D03*
X124971000Y-105082800D03*
%TD*%
%TO.C,R94*%
X125923700Y-87858600D03*
X124723700Y-87858600D03*
%TD*%
%TO.C,R26*%
X173142400Y-62141000D03*
X174342400Y-62141000D03*
%TD*%
D11*
%TO.C,C5*%
X175329900Y-57661000D03*
X175329900Y-56461000D03*
%TD*%
D10*
%TO.C,R30*%
X121161100Y-63728600D03*
X119961100Y-63728600D03*
%TD*%
D11*
%TO.C,C43*%
X178346100Y-80521100D03*
X178346100Y-79321100D03*
%TD*%
D10*
%TO.C,R169*%
X177904800Y-114846100D03*
X179104800Y-114846100D03*
%TD*%
%TO.C,R129*%
X160601000Y-101193600D03*
X161801000Y-101193600D03*
%TD*%
D18*
%TO.C,D55*%
X129768600Y-140983600D03*
X129768600Y-142683600D03*
%TD*%
D11*
%TO.C,R74*%
X129292400Y-76711100D03*
X129292400Y-75511100D03*
%TD*%
D10*
%TO.C,R100*%
X125923600Y-91668600D03*
X124723600Y-91668600D03*
%TD*%
D13*
%TO.C,D40*%
X107702500Y-111129900D03*
X107702500Y-112429900D03*
%TD*%
D10*
%TO.C,R147*%
X125129800Y-111036100D03*
X123929800Y-111036100D03*
%TD*%
D12*
%TO.C,D9*%
X146661100Y-69285000D03*
X145361100Y-69285000D03*
%TD*%
D10*
%TO.C,C37*%
X166087400Y-76111100D03*
X164887400Y-76111100D03*
%TD*%
%TO.C,R132*%
X123771100Y-101987400D03*
X124971100Y-101987400D03*
%TD*%
D19*
%TO.C,IC12*%
X117643600Y-84048600D03*
X117643600Y-85318600D03*
X117643600Y-86588600D03*
X117643600Y-87858600D03*
X117643600Y-89128600D03*
X117643600Y-90398600D03*
X117643600Y-91668600D03*
X117643600Y-92938600D03*
X122843600Y-92938600D03*
X122843600Y-91668600D03*
X122843600Y-90398600D03*
X122843600Y-89128600D03*
X122843600Y-87858600D03*
X122843600Y-86588600D03*
X122843600Y-85318600D03*
X122843600Y-84048600D03*
%TD*%
D13*
%TO.C,D33*%
X162629900Y-111101100D03*
X162629900Y-109801100D03*
%TD*%
%TO.C,D17*%
X107543500Y-76334800D03*
X107543500Y-75034800D03*
%TD*%
D10*
%TO.C,C3*%
X111477400Y-54838600D03*
X110277400Y-54838600D03*
%TD*%
%TO.C,C59*%
X180533600Y-94208700D03*
X179333600Y-94208700D03*
%TD*%
D11*
%TO.C,R20*%
X176441100Y-61947400D03*
X176441100Y-60747400D03*
%TD*%
%TO.C,C50*%
X125799900Y-90363600D03*
X125799900Y-89163600D03*
%TD*%
D10*
%TO.C,C67*%
X136877300Y-96113600D03*
X135677300Y-96113600D03*
%TD*%
D11*
%TO.C,C76*%
X160566100Y-105038600D03*
X160566100Y-106238600D03*
%TD*%
D10*
%TO.C,C99*%
X115604900Y-117227300D03*
X114404900Y-117227300D03*
%TD*%
%TO.C,R123*%
X172666200Y-98494700D03*
X173866200Y-98494700D03*
%TD*%
D11*
%TO.C,R140*%
X166122300Y-77257300D03*
X166122300Y-78457300D03*
%TD*%
%TO.C,C71*%
X170884900Y-99958600D03*
X170884900Y-101158600D03*
%TD*%
D10*
%TO.C,C4*%
X187271100Y-54838600D03*
X188471100Y-54838600D03*
%TD*%
%TO.C,R135*%
X160601100Y-103733600D03*
X161801100Y-103733600D03*
%TD*%
D17*
%TO.C,IC1*%
X168516300Y-57016000D03*
X168516300Y-57666000D03*
X168516300Y-58316000D03*
X168516300Y-58966000D03*
X168516300Y-59616000D03*
X168516300Y-60266000D03*
X168516300Y-60916000D03*
X174205900Y-60916000D03*
X174205900Y-60266000D03*
X174205900Y-59616000D03*
X174205900Y-58966000D03*
X174205900Y-58316000D03*
X174205900Y-57666000D03*
X174185600Y-57016000D03*
%TD*%
D10*
%TO.C,C83*%
X177111200Y-108178600D03*
X178311200Y-108178600D03*
%TD*%
D12*
%TO.C,D28*%
X179233600Y-109289800D03*
X180533600Y-109289800D03*
%TD*%
D11*
%TO.C,R163*%
X170726100Y-114087300D03*
X170726100Y-115287300D03*
%TD*%
D10*
%TO.C,R160*%
X119732400Y-113735100D03*
X118532400Y-113735100D03*
%TD*%
%TO.C,R162*%
X174024900Y-114369900D03*
X172824900Y-114369900D03*
%TD*%
%TO.C,R131*%
X136401100Y-101193700D03*
X135201100Y-101193700D03*
%TD*%
%TO.C,R88*%
X109166100Y-85477200D03*
X110366100Y-85477200D03*
%TD*%
%TO.C,R187*%
X164341100Y-131356100D03*
X163141100Y-131356100D03*
%TD*%
%TO.C,C1*%
X130686100Y-53727300D03*
X129486100Y-53727300D03*
%TD*%
D11*
%TO.C,R68*%
X166122500Y-74964800D03*
X166122500Y-73764800D03*
%TD*%
D10*
%TO.C,R137*%
X173231100Y-106591100D03*
X172031100Y-106591100D03*
%TD*%
%TO.C,R98*%
X111706300Y-90716100D03*
X112906300Y-90716100D03*
%TD*%
D11*
%TO.C,R51*%
X109448600Y-71948500D03*
X109448600Y-70748500D03*
%TD*%
D12*
%TO.C,D15*%
X118403500Y-74523600D03*
X117103500Y-74523600D03*
%TD*%
D11*
%TO.C,R171*%
X162471100Y-114246200D03*
X162471100Y-115446200D03*
%TD*%
%TO.C,R200*%
X181997400Y-54803500D03*
X181997400Y-53603500D03*
%TD*%
D12*
%TO.C,D14*%
X116181000Y-74523600D03*
X114881000Y-74523600D03*
%TD*%
D18*
%TO.C,R191*%
X132411100Y-145961100D03*
X134111100Y-145961100D03*
%TD*%
D10*
%TO.C,R47*%
X165681200Y-70078400D03*
X166881200Y-70078400D03*
%TD*%
D11*
%TO.C,R19*%
X177552400Y-61947100D03*
X177552400Y-60747100D03*
%TD*%
D12*
%TO.C,D42*%
X187012500Y-114052400D03*
X188312500Y-114052400D03*
%TD*%
D10*
%TO.C,C81*%
X123770900Y-106353100D03*
X124970900Y-106353100D03*
%TD*%
%TO.C,R141*%
X173231000Y-107702400D03*
X172031000Y-107702400D03*
%TD*%
D11*
%TO.C,R73*%
X177711100Y-76393500D03*
X177711100Y-75193500D03*
%TD*%
D16*
%TO.C,IC9*%
X123441100Y-75453600D03*
X123441100Y-76103600D03*
X123441100Y-76753600D03*
X123441100Y-77403600D03*
X127841100Y-77403600D03*
X127841100Y-76753600D03*
X127841100Y-76103600D03*
X127841100Y-75453600D03*
%TD*%
D11*
%TO.C,R75*%
X153898600Y-77346100D03*
X153898600Y-76146100D03*
%TD*%
%TO.C,R115*%
X126276100Y-97259800D03*
X126276100Y-98459800D03*
%TD*%
D10*
%TO.C,R66*%
X118462300Y-73571100D03*
X117262300Y-73571100D03*
%TD*%
D11*
%TO.C,C75*%
X136436200Y-104721000D03*
X136436200Y-105921000D03*
%TD*%
D10*
%TO.C,R161*%
X122818500Y-114369700D03*
X124018500Y-114369700D03*
%TD*%
%TO.C,R189*%
X176406100Y-131356100D03*
X175206100Y-131356100D03*
%TD*%
D11*
%TO.C,R7*%
X129609900Y-56461100D03*
X129609900Y-57661100D03*
%TD*%
D12*
%TO.C,D27*%
X117927400Y-109289800D03*
X116627400Y-109289800D03*
%TD*%
D10*
%TO.C,R157*%
X160124900Y-113258600D03*
X161324900Y-113258600D03*
%TD*%
D12*
%TO.C,D46*%
X181427400Y-115957200D03*
X180127400Y-115957200D03*
%TD*%
D10*
%TO.C,R183*%
X120596100Y-131356100D03*
X121796100Y-131356100D03*
%TD*%
D21*
%TO.C,L2*%
X143791100Y-88969900D03*
X145391100Y-88969900D03*
%TD*%
D10*
%TO.C,R148*%
X135677400Y-111036100D03*
X136877400Y-111036100D03*
%TD*%
D11*
%TO.C,R104*%
X115639900Y-92903400D03*
X115639900Y-91703400D03*
%TD*%
D18*
%TO.C,D60*%
X178028600Y-154318600D03*
X178028600Y-156018600D03*
%TD*%
D10*
%TO.C,R4*%
X179422300Y-56426100D03*
X178222300Y-56426100D03*
%TD*%
%TO.C,C35*%
X184026000Y-74364900D03*
X182826000Y-74364900D03*
%TD*%
%TO.C,R155*%
X136877200Y-113258500D03*
X135677200Y-113258500D03*
%TD*%
D17*
%TO.C,IC18*%
X111048800Y-110673600D03*
X111048800Y-111323600D03*
X111048800Y-111973600D03*
X111048800Y-112623600D03*
X111048800Y-113273600D03*
X111048800Y-113923600D03*
X111048800Y-114573600D03*
X116738400Y-114573600D03*
X116738400Y-113923600D03*
X116738400Y-113273600D03*
X116738400Y-112623600D03*
X116738400Y-111973600D03*
X116738400Y-111323600D03*
X116718100Y-110673600D03*
%TD*%
D10*
%TO.C,R35*%
X179581000Y-64998700D03*
X178381000Y-64998700D03*
%TD*%
D13*
%TO.C,D39*%
X189458600Y-111129800D03*
X189458600Y-112429800D03*
%TD*%
D18*
%TO.C,D59*%
X129768600Y-153683600D03*
X129768600Y-155383600D03*
%TD*%
D10*
%TO.C,R91*%
X186636100Y-85477300D03*
X187836100Y-85477300D03*
%TD*%
D12*
%TO.C,D23*%
X171931100Y-102304900D03*
X173231100Y-102304900D03*
%TD*%
D11*
%TO.C,R25*%
X166281100Y-61223700D03*
X166281100Y-62423700D03*
%TD*%
D10*
%TO.C,R174*%
X188312200Y-115163600D03*
X187112200Y-115163600D03*
%TD*%
D18*
%TO.C,R192*%
X151143600Y-145961100D03*
X152843600Y-145961100D03*
%TD*%
M02*
