%TF.GenerationSoftware,KiCad,Pcbnew,7.0.1*%
%TF.CreationDate,2023-04-05T17:19:15+02:00*%
%TF.ProjectId,blades_v40,626c6164-6573-45f7-9634-302e6b696361,rev?*%
%TF.SameCoordinates,Original*%
%TF.FileFunction,Copper,L3,Inr*%
%TF.FilePolarity,Positive*%
%FSLAX46Y46*%
G04 Gerber Fmt 4.6, Leading zero omitted, Abs format (unit mm)*
G04 Created by KiCad (PCBNEW 7.0.1) date 2023-04-05 17:19:15*
%MOMM*%
%LPD*%
G01*
G04 APERTURE LIST*
G04 Aperture macros list*
%AMOutline5P*
0 Free polygon, 5 corners , with rotation*
0 The origin of the aperture is its center*
0 number of corners: always 5*
0 $1 to $10 corner X, Y*
0 $11 Rotation angle, in degrees counterclockwise*
0 create outline with 5 corners*
4,1,5,$1,$2,$3,$4,$5,$6,$7,$8,$9,$10,$1,$2,$11*%
%AMOutline6P*
0 Free polygon, 6 corners , with rotation*
0 The origin of the aperture is its center*
0 number of corners: always 6*
0 $1 to $12 corner X, Y*
0 $13 Rotation angle, in degrees counterclockwise*
0 create outline with 6 corners*
4,1,6,$1,$2,$3,$4,$5,$6,$7,$8,$9,$10,$11,$12,$1,$2,$13*%
%AMOutline7P*
0 Free polygon, 7 corners , with rotation*
0 The origin of the aperture is its center*
0 number of corners: always 7*
0 $1 to $14 corner X, Y*
0 $15 Rotation angle, in degrees counterclockwise*
0 create outline with 7 corners*
4,1,7,$1,$2,$3,$4,$5,$6,$7,$8,$9,$10,$11,$12,$13,$14,$1,$2,$15*%
%AMOutline8P*
0 Free polygon, 8 corners , with rotation*
0 The origin of the aperture is its center*
0 number of corners: always 8*
0 $1 to $16 corner X, Y*
0 $17 Rotation angle, in degrees counterclockwise*
0 create outline with 8 corners*
4,1,8,$1,$2,$3,$4,$5,$6,$7,$8,$9,$10,$11,$12,$13,$14,$15,$16,$1,$2,$17*%
G04 Aperture macros list end*
%TA.AperFunction,ComponentPad*%
%ADD10R,1.879600X1.879600*%
%TD*%
%TA.AperFunction,ComponentPad*%
%ADD11Outline8P,-1.270000X0.526051X-0.526051X1.270000X0.526051X1.270000X1.270000X0.526051X1.270000X-0.526051X0.526051X-1.270000X-0.526051X-1.270000X-1.270000X-0.526051X90.000000*%
%TD*%
%TA.AperFunction,ComponentPad*%
%ADD12O,2.000000X4.000000*%
%TD*%
%TA.AperFunction,ComponentPad*%
%ADD13Outline8P,-0.889000X0.368236X-0.368236X0.889000X0.368236X0.889000X0.889000X0.368236X0.889000X-0.368236X0.368236X-0.889000X-0.368236X-0.889000X-0.889000X-0.368236X180.000000*%
%TD*%
%TA.AperFunction,ComponentPad*%
%ADD14Outline8P,-0.609600X0.252505X-0.252505X0.609600X0.252505X0.609600X0.609600X0.252505X0.609600X-0.252505X0.252505X-0.609600X-0.252505X-0.609600X-0.609600X-0.252505X0.000000*%
%TD*%
%TA.AperFunction,ComponentPad*%
%ADD15Outline8P,-0.609600X0.252505X-0.252505X0.609600X0.252505X0.609600X0.609600X0.252505X0.609600X-0.252505X0.252505X-0.609600X-0.252505X-0.609600X-0.609600X-0.252505X180.000000*%
%TD*%
%TA.AperFunction,ComponentPad*%
%ADD16Outline8P,-0.553200X0.229143X-0.229143X0.553200X0.229143X0.553200X0.553200X0.229143X0.553200X-0.229143X0.229143X-0.553200X-0.229143X-0.553200X-0.553200X-0.229143X0.000000*%
%TD*%
%TA.AperFunction,ComponentPad*%
%ADD17C,1.350000*%
%TD*%
%TA.AperFunction,ComponentPad*%
%ADD18C,1.016000*%
%TD*%
%TA.AperFunction,ComponentPad*%
%ADD19Outline8P,-0.939800X0.389278X-0.389278X0.939800X0.389278X0.939800X0.939800X0.389278X0.939800X-0.389278X0.389278X-0.939800X-0.389278X-0.939800X-0.939800X-0.389278X180.000000*%
%TD*%
%TA.AperFunction,ViaPad*%
%ADD20C,1.008000*%
%TD*%
%TA.AperFunction,ViaPad*%
%ADD21C,0.808000*%
%TD*%
%TA.AperFunction,Conductor*%
%ADD22C,0.609600*%
%TD*%
%TA.AperFunction,Conductor*%
%ADD23C,0.254000*%
%TD*%
%TA.AperFunction,Conductor*%
%ADD24C,0.304800*%
%TD*%
%TA.AperFunction,Conductor*%
%ADD25C,0.406400*%
%TD*%
G04 APERTURE END LIST*
D10*
%TO.N,GND*%
%TO.C,R86*%
X133221100Y-91366100D03*
%TO.N,Net-(R86-S)*%
X130721100Y-91366100D03*
%TO.N,AREF_-5*%
X128221100Y-91366100D03*
D11*
%TO.N,N/C*%
X135421100Y-84366100D03*
X126021100Y-84366100D03*
%TD*%
D10*
%TO.N,Net-(IC3A--IN)*%
%TO.C,R179*%
X151001100Y-127896100D03*
%TO.N,Net-(R179-S)*%
X148501100Y-127896100D03*
%TO.N,Net-(IC3D--IN)*%
X146001100Y-127896100D03*
D12*
%TO.N,N/C*%
X152901100Y-121196100D03*
X144101100Y-121196100D03*
%TD*%
D10*
%TO.N,Net-(IC20D--IN)*%
%TO.C,R181*%
X175131100Y-127896100D03*
%TO.N,Net-(R181-S)*%
X172631100Y-127896100D03*
%TO.N,Net-(IC20C--IN)*%
X170131100Y-127896100D03*
D12*
%TO.N,N/C*%
X177031100Y-121196100D03*
X168231100Y-121196100D03*
%TD*%
D13*
%TO.N,GND*%
%TO.C,J6*%
X148501100Y-131038600D03*
X148501100Y-133737300D03*
%TO.N,Net-(D61-C)*%
X148501100Y-141674900D03*
%TD*%
D10*
%TO.N,Net-(IC19C--IN)*%
%TO.C,R178*%
X138936100Y-127896100D03*
%TO.N,Net-(R178-S)*%
X136436100Y-127896100D03*
%TO.N,Net-(IC19D--IN)*%
X133936100Y-127896100D03*
D12*
%TO.N,N/C*%
X140836100Y-121196100D03*
X132036100Y-121196100D03*
%TD*%
D10*
%TO.N,Net-(R81-E)*%
%TO.C,R81*%
X187196100Y-87256000D03*
%TO.N,GND*%
X184696100Y-87256000D03*
%TO.N,Net-(R81-A)*%
X182196100Y-87256000D03*
D12*
%TO.N,N/C*%
X189096100Y-80556000D03*
X180296100Y-80556000D03*
%TD*%
D13*
%TO.N,GND*%
%TO.C,J7*%
X160566100Y-131038600D03*
X160566100Y-133737300D03*
%TO.N,Net-(D58-C)*%
X160566100Y-141674900D03*
%TD*%
%TO.N,GND*%
%TO.C,J13*%
X148501100Y-145643600D03*
%TO.N,unconnected-(J13-2-PadP2)*%
X148501100Y-148342300D03*
%TO.N,Net-(J13-3)*%
X148501100Y-156279900D03*
%TD*%
D10*
%TO.N,Net-(R80-E)*%
%TO.C,R80*%
X114806100Y-87256000D03*
%TO.N,GND*%
X112306100Y-87256000D03*
%TO.N,Net-(R80-A)*%
X109806100Y-87256000D03*
D12*
%TO.N,N/C*%
X116706100Y-80556000D03*
X107906100Y-80556000D03*
%TD*%
D10*
%TO.N,AREF_+5*%
%TO.C,R18*%
X187196100Y-68188600D03*
%TO.N,Net-(R18-S)*%
X184696100Y-68188600D03*
%TO.N,GND*%
X182196100Y-68188600D03*
D11*
%TO.N,N/C*%
X189396100Y-61188600D03*
X179996100Y-61188600D03*
%TD*%
D13*
%TO.N,GND*%
%TO.C,J12*%
X136436100Y-145643600D03*
%TO.N,unconnected-(J12-2-PadP2)*%
X136436100Y-148342300D03*
%TO.N,Net-(J12-3)*%
X136436100Y-156279900D03*
%TD*%
D14*
%TO.N,Net-(IC1A-OUT)*%
%TO.C,LED2*%
X171678500Y-55156100D03*
%TO.N,Net-(IC1A--IN)*%
X174218500Y-55156100D03*
%TD*%
D10*
%TO.N,AREF_+5*%
%TO.C,R127*%
X114806100Y-108193600D03*
%TO.N,/blades_v40_3/MORPH_POT_1*%
X112306100Y-108193600D03*
%TO.N,GND*%
X109806100Y-108193600D03*
D11*
%TO.N,N/C*%
X117006100Y-101193600D03*
X107606100Y-101193600D03*
%TD*%
D13*
%TO.N,GND*%
%TO.C,J10*%
X112306100Y-145643600D03*
X112306100Y-148342300D03*
%TO.N,RAW_IN_1*%
X112306100Y-156279900D03*
%TD*%
%TO.N,GND*%
%TO.C,J15*%
X172631100Y-145643600D03*
X172631100Y-148342300D03*
%TO.N,Net-(D60-C)*%
X172631100Y-156279900D03*
%TD*%
D15*
%TO.N,Net-(IC2D-OUT)*%
%TO.C,LED1*%
X125323600Y-55156100D03*
%TO.N,Net-(IC2D--IN)*%
X122783600Y-55156100D03*
%TD*%
D10*
%TO.N,AREF_+5*%
%TO.C,R130*%
X187196100Y-108193600D03*
%TO.N,/blades_v40_4/MORPH_POT_2*%
X184696100Y-108193600D03*
%TO.N,GND*%
X182196100Y-108193600D03*
D11*
%TO.N,N/C*%
X189396100Y-101193600D03*
X179996100Y-101193600D03*
%TD*%
D10*
%TO.N,Net-(IC19A--IN)*%
%TO.C,R177*%
X126871100Y-127896100D03*
%TO.N,Net-(R177-S)*%
X124371100Y-127896100D03*
%TO.N,Net-(IC19B--IN)*%
X121871100Y-127896100D03*
D12*
%TO.N,N/C*%
X128771100Y-121196100D03*
X119971100Y-121196100D03*
%TD*%
D13*
%TO.N,GND*%
%TO.C,J2*%
X184696100Y-116433600D03*
X184696100Y-119132300D03*
%TO.N,/blades_v40_4/MORPH_CV_2*%
X184696100Y-127069900D03*
%TD*%
%TO.N,GND*%
%TO.C,J1*%
X112306100Y-116433600D03*
X112306100Y-119132300D03*
%TO.N,/blades_v40_3/MORPH_CV_1*%
X112306100Y-127069900D03*
%TD*%
%TO.N,GND*%
%TO.C,J5*%
X136436100Y-131038600D03*
X136436100Y-133737300D03*
%TO.N,Net-(D57-C)*%
X136436100Y-141674900D03*
%TD*%
D10*
%TO.N,AREF_+5*%
%TO.C,R17*%
X114806100Y-68188600D03*
%TO.N,Net-(R17-S)*%
X112306100Y-68188600D03*
%TO.N,GND*%
X109806100Y-68188600D03*
D11*
%TO.N,N/C*%
X117006100Y-61188600D03*
X107606100Y-61188600D03*
%TD*%
D13*
%TO.N,GND*%
%TO.C,J3*%
X112306100Y-131038600D03*
%TO.N,Net-(J3-2)*%
X112306100Y-133737300D03*
%TO.N,Net-(D50-C)*%
X112306100Y-141674900D03*
%TD*%
D10*
%TO.N,GND*%
%TO.C,R128*%
X151001100Y-108193600D03*
%TO.N,Net-(R128-S)*%
X148501100Y-108193600D03*
%TO.N,AREF_-5*%
X146001100Y-108193600D03*
D11*
%TO.N,N/C*%
X153201100Y-101193600D03*
X143801100Y-101193600D03*
%TD*%
D13*
%TO.N,GND*%
%TO.C,J14*%
X160566100Y-145643600D03*
%TO.N,unconnected-(J14-2-PadP2)*%
X160566100Y-148342300D03*
%TO.N,Net-(J14-3)*%
X160566100Y-156279900D03*
%TD*%
%TO.N,GND*%
%TO.C,J16*%
X184696100Y-145643600D03*
%TO.N,IN_2_NORMALIZATION*%
X184696100Y-148342300D03*
%TO.N,Net-(D52-C)*%
X184696100Y-156279900D03*
%TD*%
D10*
%TO.N,Net-(IC20B--IN)*%
%TO.C,R180*%
X163066100Y-127896100D03*
%TO.N,Net-(R180-S)*%
X160566100Y-127896100D03*
%TO.N,Net-(IC20A--IN)*%
X158066100Y-127896100D03*
D12*
%TO.N,N/C*%
X164966100Y-121196100D03*
X156166100Y-121196100D03*
%TD*%
D13*
%TO.N,GND*%
%TO.C,J9*%
X184696100Y-131038600D03*
%TO.N,Net-(J9-2)*%
X184696100Y-133737300D03*
%TO.N,Net-(D51-C)*%
X184696100Y-141674900D03*
%TD*%
D10*
%TO.N,GND*%
%TO.C,R87*%
X168781100Y-91366100D03*
%TO.N,Net-(R87-S)*%
X166281100Y-91366100D03*
%TO.N,AREF_-5*%
X163781100Y-91366100D03*
D11*
%TO.N,N/C*%
X170981100Y-84366100D03*
X161581100Y-84366100D03*
%TD*%
D13*
%TO.N,GND*%
%TO.C,J11*%
X124371100Y-145643600D03*
X124371100Y-148342300D03*
%TO.N,Net-(D59-C)*%
X124371100Y-156279900D03*
%TD*%
D10*
%TO.N,AREF_-5*%
%TO.C,R14*%
X138936100Y-66283600D03*
%TO.N,Net-(R14-S)*%
X136436100Y-66283600D03*
%TO.N,GND*%
X133936100Y-66283600D03*
D11*
%TO.N,N/C*%
X141136100Y-59283600D03*
X131736100Y-59283600D03*
%TD*%
D16*
%TO.N,Net-(R75-Pad2)*%
%TO.C,SW1*%
X153501100Y-74841100D03*
%TO.N,GND*%
X143501100Y-74841100D03*
D17*
%TO.N,Net-(SW1A-A1)*%
X151001100Y-72341100D03*
%TO.N,Net-(IC20C--IN)*%
X148501100Y-72341100D03*
%TO.N,Net-(SW1A-A3)*%
X146001100Y-72341100D03*
%TO.N,unconnected-(SW1A-B1-PadP4)*%
X151001100Y-77341100D03*
%TO.N,Net-(SW1A-B2)*%
X148501100Y-77341100D03*
%TO.N,VCC*%
X146001100Y-77341100D03*
%TD*%
D13*
%TO.N,GND*%
%TO.C,J4*%
X124371100Y-131038600D03*
%TO.N,Net-(J4-2)*%
X124371100Y-133737300D03*
%TO.N,Net-(D55-C)*%
X124371100Y-141674900D03*
%TD*%
%TO.N,GND*%
%TO.C,J8*%
X172631100Y-131038600D03*
%TO.N,Net-(J8-2)*%
X172631100Y-133737300D03*
%TO.N,Net-(D56-C)*%
X172631100Y-141674900D03*
%TD*%
D10*
%TO.N,AREF_-5*%
%TO.C,R15*%
X163066100Y-66283600D03*
%TO.N,Net-(R15-S)*%
X160566100Y-66283600D03*
%TO.N,GND*%
X158066100Y-66283600D03*
D11*
%TO.N,N/C*%
X165266100Y-59283600D03*
X155866100Y-59283600D03*
%TD*%
D18*
%TO.N,Net-(IC17A-CTRL)*%
%TO.C,R195*%
X157232400Y-98653600D03*
X157232400Y-101193600D03*
%TO.N,Net-(R195-A)*%
X157232400Y-103733600D03*
%TD*%
%TO.N,Net-(R139-E)*%
%TO.C,R139*%
X151041100Y-112306100D03*
X148501100Y-112306100D03*
%TO.N,OUT_2*%
X145961100Y-112306100D03*
%TD*%
D19*
%TO.N,Net-(JP1-Pad1)*%
%TO.C,JP1*%
X153581100Y-85953600D03*
X153581100Y-83413600D03*
%TO.N,GND*%
X151041100Y-85953600D03*
X151041100Y-83413600D03*
X148501100Y-85953600D03*
X148501100Y-83413600D03*
X145961100Y-85953600D03*
X145961100Y-83413600D03*
%TO.N,Net-(D19-PadA)*%
X143421100Y-85953600D03*
X143421100Y-83413600D03*
%TD*%
D18*
%TO.N,Net-(R198-E)*%
%TO.C,R198*%
X137864900Y-74999700D03*
X135324900Y-74999700D03*
%TO.N,OUT_1*%
X132784900Y-74999700D03*
%TD*%
%TO.N,Net-(IC16A-CTRL)*%
%TO.C,R196*%
X139769800Y-98653500D03*
X139769800Y-101193500D03*
%TO.N,F_CV_1_PRE*%
X139769800Y-103733500D03*
%TD*%
D20*
%TO.N,GND*%
X147231100Y-99606100D03*
X145326100Y-93891100D03*
D21*
X136118600Y-88176100D03*
X137864900Y-96272300D03*
D20*
X191681200Y-102146200D03*
X163741200Y-76269800D03*
D21*
X122942400Y-96113600D03*
D20*
X150406100Y-92303600D03*
X157073500Y-74841100D03*
X105321200Y-102146200D03*
X191681200Y-142786200D03*
X181521100Y-119449900D03*
D21*
X165169900Y-96589700D03*
D20*
X132467300Y-63728600D03*
X183267300Y-54679800D03*
X169297300Y-53886100D03*
D21*
X170726100Y-112623600D03*
D20*
X141833600Y-117227400D03*
D21*
X125958600Y-108813600D03*
X178028600Y-63728700D03*
X162153600Y-108178600D03*
X105162400Y-112306100D03*
X125641100Y-119926100D03*
X178346100Y-67538700D03*
X134531100Y-112623600D03*
D20*
X137388600Y-108019800D03*
X116751100Y-94843600D03*
D21*
X170091100Y-89763600D03*
X137071100Y-99923600D03*
X162153600Y-119291100D03*
X184537400Y-111829900D03*
D20*
X150406100Y-156756100D03*
X173425000Y-108813600D03*
D21*
X164217400Y-98971000D03*
D20*
X121037400Y-95478600D03*
X178841400Y-156819600D03*
X109448700Y-118021100D03*
D21*
X127863600Y-78333600D03*
X124847400Y-76904800D03*
D20*
X125006000Y-72301100D03*
X127228600Y-80556200D03*
X145326100Y-92303600D03*
X112941000Y-74364800D03*
X145326100Y-90716100D03*
D21*
X111830000Y-95319900D03*
X130403600Y-113099800D03*
D20*
X121196200Y-59759900D03*
X114052500Y-54680000D03*
D21*
X117862300Y-112623600D03*
X162471100Y-112623600D03*
X163106200Y-71348800D03*
D20*
X191681100Y-156756100D03*
X131991100Y-73729800D03*
X105321200Y-61506200D03*
D21*
X188347300Y-75952400D03*
X155803600Y-69126100D03*
X137706100Y-105321100D03*
D20*
X115481200Y-119449800D03*
X119291100Y-156756100D03*
X105321200Y-156756200D03*
X170726100Y-156756100D03*
D21*
X168027400Y-96431100D03*
D20*
X191681100Y-53251100D03*
D21*
X125879300Y-105718000D03*
D20*
X152311100Y-58966100D03*
X120719900Y-79286100D03*
X189617300Y-54838600D03*
X191681200Y-132308700D03*
X130403600Y-118656100D03*
D21*
X150088600Y-65951200D03*
X112782400Y-111671100D03*
X120719800Y-67538500D03*
D20*
X150406100Y-94208600D03*
X105321200Y-142786200D03*
D21*
X132467400Y-68332400D03*
D20*
X175488600Y-94049900D03*
X154851200Y-63728700D03*
D21*
X142151200Y-64046200D03*
X146913700Y-65951200D03*
D20*
X178028600Y-54521100D03*
X150406100Y-90716100D03*
D21*
X171837400Y-100558500D03*
D20*
X187871000Y-118021100D03*
D21*
X171361100Y-76587300D03*
X176441100Y-59759900D03*
X171043600Y-105797300D03*
X161836100Y-105638600D03*
X170726100Y-60871100D03*
X185172400Y-95319900D03*
D20*
X174218600Y-96113600D03*
X177552300Y-74047500D03*
D21*
X112782500Y-114052300D03*
D20*
X184378600Y-76428600D03*
X142151200Y-74999800D03*
D21*
X131832400Y-96431100D03*
X184537300Y-113734800D03*
X179139800Y-112623600D03*
X125958700Y-60077500D03*
D20*
X112941100Y-104686100D03*
X142151100Y-130086100D03*
D21*
X166598600Y-113099800D03*
X177234900Y-79603600D03*
X159137300Y-96272300D03*
D20*
X191681300Y-61506200D03*
X184061100Y-104686100D03*
D21*
X181521100Y-95161100D03*
D20*
X166598600Y-118656100D03*
D21*
X105162400Y-91986100D03*
D20*
X130086100Y-156756100D03*
D21*
X126276100Y-112623600D03*
D20*
X118973700Y-54521200D03*
D21*
X159454900Y-77381100D03*
D20*
X184537400Y-70078700D03*
X126911100Y-53886100D03*
D21*
X126911100Y-89128600D03*
X191840000Y-91986100D03*
D20*
X109131100Y-54838500D03*
D21*
X164693700Y-68491300D03*
D20*
X170567500Y-81191100D03*
X113893500Y-70237300D03*
D21*
X128181100Y-98971100D03*
X175329900Y-78492300D03*
D20*
X151993600Y-116751100D03*
X140246100Y-156756100D03*
D21*
X134531100Y-117386100D03*
D20*
X179222400Y-127838200D03*
D21*
X183267300Y-72777400D03*
D20*
X157353000Y-130860800D03*
D21*
X113893200Y-72777400D03*
D20*
X105321200Y-122466200D03*
D21*
X166916100Y-72618600D03*
X171361100Y-119926100D03*
D20*
X105321100Y-53251100D03*
X191681200Y-122466200D03*
X105321200Y-132626200D03*
%TO.N,VCC*%
X167233600Y-76111100D03*
X110718600Y-118021100D03*
X165328600Y-53886100D03*
X165646100Y-115163600D03*
X164376100Y-63728600D03*
D21*
X124847300Y-100876100D03*
D20*
X139611100Y-89446100D03*
X175806100Y-63093600D03*
X124688600Y-58966100D03*
X125323600Y-74523600D03*
X125323600Y-68808600D03*
X167233700Y-99923600D03*
X126276100Y-96113600D03*
X131038500Y-99923600D03*
X176441100Y-84366100D03*
X182632500Y-118338600D03*
D21*
X160089800Y-99923600D03*
D20*
X126911100Y-62458600D03*
X162471200Y-96113600D03*
X118814800Y-63728600D03*
X120243600Y-80556100D03*
X129451100Y-115163600D03*
X170408600Y-58966100D03*
X116751100Y-69126100D03*
X188982300Y-69126100D03*
X144373600Y-64998600D03*
%TO.N,AREF_-5*%
X138976100Y-57378600D03*
X118973600Y-81508600D03*
X112941100Y-57378600D03*
D21*
X164534900Y-71348600D03*
X177076100Y-110401100D03*
D20*
X158343600Y-74841100D03*
D21*
X119926100Y-114846100D03*
D20*
X115798600Y-64998600D03*
X182791100Y-57378600D03*
X128181100Y-86588600D03*
D21*
X169932400Y-86588600D03*
X133896100Y-71348500D03*
D20*
X163106100Y-57378600D03*
X178346100Y-81826100D03*
X181203600Y-65316100D03*
D21*
X119926100Y-110401100D03*
D20*
%TO.N,VEE*%
X171678600Y-72618600D03*
X124371100Y-93891100D03*
X171678600Y-75476100D03*
X187871100Y-96272300D03*
X114211100Y-118338600D03*
X109131100Y-94684800D03*
X130721100Y-108813600D03*
X110559800Y-75476100D03*
X179616200Y-96272200D03*
X134531100Y-96113600D03*
X149136100Y-55156100D03*
X126593600Y-58966100D03*
X172313600Y-58966100D03*
X167551100Y-115163600D03*
X125958600Y-76428600D03*
X129451100Y-55156100D03*
X170726100Y-96113600D03*
X157708600Y-89446100D03*
X186601100Y-118021100D03*
X168503600Y-55156100D03*
X131356100Y-115163600D03*
X182791000Y-75476100D03*
X125958600Y-78333600D03*
X176441100Y-76746100D03*
X166916100Y-108813600D03*
X126276100Y-72618600D03*
X152628600Y-64998600D03*
%TO.N,AREF_+5*%
X111353600Y-56426100D03*
X109575600Y-127254000D03*
X187680600Y-127127000D03*
X187236100Y-56426100D03*
X140881100Y-74999900D03*
X140881100Y-62617300D03*
X143421100Y-56426100D03*
D21*
%TO.N,IN_1*%
X109766100Y-98018600D03*
X122783600Y-99923600D03*
%TO.N,OUT_1*%
X116433600Y-144373600D03*
X144475200Y-144373600D03*
X119291100Y-77063600D03*
X119926100Y-144373600D03*
X106273700Y-83254800D03*
X156616400Y-145999200D03*
%TO.N,Net-(IC2C-OUT)*%
X131832400Y-61188600D03*
X114211100Y-61188600D03*
%TO.N,Net-(IC1B-OUT)*%
X182314900Y-78333600D03*
X158026100Y-68808600D03*
X185966100Y-81984800D03*
X178504800Y-69919800D03*
%TO.N,Net-(IC5B-CTRL)*%
X153263500Y-69284900D03*
X170726100Y-70078600D03*
%TO.N,Net-(IC3C--IN)*%
X156914800Y-68808600D03*
X166916100Y-68808600D03*
%TO.N,Net-(IC4B-CTRL)*%
X126276100Y-69602300D03*
X143738600Y-69284800D03*
%TO.N,Net-(IC3B--IN)*%
X142309900Y-66268600D03*
X130562300Y-68649900D03*
%TO.N,/blades_v40_5/OUT*%
X160566100Y-75634900D03*
X172631100Y-73888600D03*
%TO.N,Net-(IC8A-OUT)*%
X153466800Y-144373600D03*
X165011100Y-73729800D03*
X161042300Y-74206100D03*
X179146200Y-144373600D03*
%TO.N,Net-(IC4B-OUT)*%
X163899900Y-72459800D03*
X125006100Y-70078600D03*
%TO.N,OUT_2*%
X150545800Y-142011400D03*
X175488600Y-141706600D03*
X190569900Y-83413500D03*
X157454600Y-141757400D03*
X181127400Y-141706600D03*
X184537400Y-77857300D03*
%TO.N,/blades_v40_3/BP_1*%
X112147400Y-96748600D03*
X137388600Y-101193600D03*
X121831100Y-98336100D03*
%TO.N,/blades_v40_3/LP_1*%
X137071100Y-98336100D03*
X120084900Y-97224800D03*
X121831100Y-97224800D03*
%TO.N,RAW_IN_1*%
X130403600Y-87858600D03*
X105638500Y-89128600D03*
%TO.N,/blades_v40_4/LP_2*%
X158343600Y-97383600D03*
X176441100Y-97383600D03*
X174853600Y-97383600D03*
%TO.N,/blades_v40_4/BP_2*%
X174853600Y-98653600D03*
X185013600Y-97224900D03*
X159931100Y-98336100D03*
%TO.N,Net-(IC12A-CTRL)*%
X119449900Y-104527300D03*
X117544900Y-106749800D03*
%TO.N,Net-(IC12D-OUT)*%
X118656100Y-106749800D03*
X119926100Y-103416100D03*
%TO.N,Net-(IC13A-CTRL)*%
X177552400Y-104209800D03*
X179298600Y-106908600D03*
%TO.N,Net-(IC13A-OUT)*%
X178187400Y-106908600D03*
X177076100Y-103257200D03*
%TO.N,Net-(R195-A)*%
X174694900Y-104051100D03*
%TO.N,Net-(IC12B-CTRL)*%
X124688600Y-90398600D03*
X115798600Y-90398600D03*
%TO.N,Net-(IC13B-CTRL)*%
X172313600Y-90398600D03*
X181362300Y-90398600D03*
%TO.N,Net-(D50-C)*%
X115163600Y-62934800D03*
X109766100Y-62934800D03*
%TO.N,IN_2*%
X187236100Y-98018600D03*
X174059900Y-99764800D03*
%TO.N,Net-(D51-C)*%
X188982400Y-63728600D03*
X180727400Y-63728600D03*
%TO.N,Net-(D52-C)*%
X166281100Y-87858600D03*
X191363700Y-89287300D03*
%TO.N,/blades_v40_3/MORPH_CV_1*%
X118973600Y-112623600D03*
%TO.N,/blades_v40_4/MORPH_CV_2*%
X178028600Y-112623600D03*
%TO.N,Net-(IC6A-OUT)*%
X113576100Y-79444800D03*
X109131100Y-83889800D03*
%TO.N,Net-(IC7A-OUT)*%
X189141000Y-70396100D03*
X183108500Y-71348600D03*
X188347300Y-73571100D03*
%TO.N,/blades_v40_5/~{OUT_1}*%
X163106100Y-73412300D03*
X121196100Y-73888600D03*
X176599900Y-71348600D03*
%TO.N,F_CV_1_PRE*%
X122307400Y-104051100D03*
%TO.N,Net-(IC14C-OUT)*%
X115639900Y-94208600D03*
X131038600Y-95637300D03*
%TO.N,/blades_v40_3/HP_1*%
X112147300Y-99447300D03*
X122783600Y-101193600D03*
%TO.N,/blades_v40_4/HP_2*%
X184854900Y-99447300D03*
X174059900Y-100876100D03*
%TO.N,Net-(IC15B-OUT)*%
X165963600Y-95637400D03*
X181521100Y-94049800D03*
%TO.N,Net-(IC16A-CTRL)*%
X125958700Y-103098600D03*
%TO.N,Net-(IC17A-CTRL)*%
X170884900Y-103098600D03*
%TO.N,Net-(IC20C--IN)*%
X170091100Y-116274800D03*
X158661000Y-116274800D03*
%TO.N,Net-(SW1A-A3)*%
X139452400Y-71348600D03*
%TO.N,Net-(R198-E)*%
X119926100Y-78016100D03*
%TO.N,Net-(R139-E)*%
X166439900Y-79921100D03*
X160407300Y-79444800D03*
%TO.N,Net-(R86-S)*%
X136436200Y-92621100D03*
X122942400Y-111512300D03*
X139293500Y-111512300D03*
%TO.N,Net-(R87-S)*%
X158502300Y-111512300D03*
X174059900Y-111512300D03*
X159613600Y-93256000D03*
%TD*%
D22*
%TO.N,VCC*%
X171996100Y-60553600D02*
X171996100Y-62934800D01*
X170408600Y-58966100D02*
X165646100Y-63728600D01*
X165646100Y-99923600D02*
X167233700Y-99923600D01*
X119291100Y-82778600D02*
X120878600Y-81191100D01*
X147866100Y-53886100D02*
X147866100Y-64998600D01*
X145961100Y-77381100D02*
X146001100Y-77341100D01*
X123577400Y-74523600D02*
X123577400Y-68808600D01*
X115798600Y-117068600D02*
X127546100Y-117068600D01*
X171996100Y-62934800D02*
X171996100Y-70713600D01*
X163741100Y-93573600D02*
X162471200Y-94843500D01*
X126276100Y-96113600D02*
X125006100Y-96113600D01*
X124688600Y-57855000D02*
X124688500Y-57854900D01*
X123577400Y-62458600D02*
X126911100Y-62458600D01*
X120878600Y-81191100D02*
X120243600Y-80556100D01*
X175806100Y-83731100D02*
X175806100Y-84366100D01*
X123577400Y-74523600D02*
X125323600Y-74523600D01*
X147866100Y-68491100D02*
X144691100Y-71666100D01*
X170408600Y-76111100D02*
X170408600Y-78333600D01*
X110718600Y-115957400D02*
X111671200Y-115004800D01*
X123577400Y-61347300D02*
X124688600Y-60236100D01*
X123577400Y-68808600D02*
X123577400Y-62458600D01*
X128657300Y-53886100D02*
X147866100Y-53886100D01*
X171996100Y-62934800D02*
X175647300Y-62934800D01*
X129451100Y-115163600D02*
X129451100Y-100876100D01*
D23*
X170408600Y-76111100D02*
X167233600Y-76111100D01*
X129451100Y-100876100D02*
X124847300Y-100876100D01*
D22*
X170408600Y-72301100D02*
X170408600Y-76111100D01*
X144691100Y-71666100D02*
X144691100Y-77381100D01*
X123577400Y-62458600D02*
X123577400Y-61347300D01*
X170408600Y-58966100D02*
X171996100Y-60553600D01*
X162471100Y-99923600D02*
X165646100Y-99923600D01*
X127546100Y-117068600D02*
X129451100Y-115163600D01*
X170408600Y-78333600D02*
X175806100Y-83731100D01*
X168821100Y-118338600D02*
X182632500Y-118338600D01*
X127228600Y-96113600D02*
X126276100Y-96113600D01*
X175806100Y-90716100D02*
X172948600Y-93573600D01*
X175806100Y-84366100D02*
X176441100Y-84366100D01*
X162471100Y-99923600D02*
X160089800Y-99923600D01*
X162471100Y-96113700D02*
X162471100Y-99923600D01*
X144691100Y-77381100D02*
X144691100Y-79603600D01*
X124688600Y-60236100D02*
X124688600Y-58966100D01*
X129451100Y-99923600D02*
X129451100Y-98336100D01*
X129451100Y-100876100D02*
X129451100Y-99923600D01*
X147866100Y-53886100D02*
X165328600Y-53886100D01*
X162471200Y-94843500D02*
X162471200Y-96113600D01*
X139611100Y-84683600D02*
X139611100Y-89446100D01*
X124688500Y-57854900D02*
X128657300Y-53886100D01*
X119291100Y-90398600D02*
X119291100Y-82778600D01*
X171996100Y-70713600D02*
X170408600Y-72301100D01*
X175806100Y-84366100D02*
X175806100Y-90716100D01*
X162471200Y-96113600D02*
X162471100Y-96113700D01*
X129451100Y-99923600D02*
X131038500Y-99923600D01*
D24*
X147866100Y-64998600D02*
X144373600Y-64998600D01*
D22*
X111671200Y-115004800D02*
X113734800Y-115004800D01*
X110718600Y-118021100D02*
X110718600Y-115957400D01*
X165646100Y-99923600D02*
X165646100Y-115163600D01*
X113734800Y-115004800D02*
X115798600Y-117068600D01*
X165646100Y-115163600D02*
X168821100Y-118338600D01*
X165328600Y-53886100D02*
X170408600Y-58966100D01*
X172948600Y-93573600D02*
X163741100Y-93573600D01*
X123577400Y-78492300D02*
X123577400Y-74523600D01*
X120878600Y-81191100D02*
X123577400Y-78492300D01*
X144691100Y-77381100D02*
X145961100Y-77381100D01*
X175647300Y-62934800D02*
X175806100Y-63093600D01*
X123577400Y-68808600D02*
X125323600Y-68808600D01*
X129451100Y-98336100D02*
X127228600Y-96113600D01*
X147866100Y-64998600D02*
X147866100Y-68491100D01*
X124688600Y-58966100D02*
X124688600Y-57855000D01*
X165646100Y-63728600D02*
X164376100Y-63728600D01*
X125006100Y-96113600D02*
X119291100Y-90398600D01*
X144691100Y-79603600D02*
X139611100Y-84683600D01*
D25*
%TO.N,AREF_-5*%
X163741100Y-86588600D02*
X163741100Y-91326100D01*
X182791100Y-63728600D02*
X181203600Y-65316100D01*
X118973600Y-79286100D02*
X117703600Y-78016100D01*
X133896100Y-76746100D02*
X128221100Y-82421100D01*
X139928600Y-93891100D02*
X145961100Y-99923600D01*
X163741100Y-84048700D02*
X163741100Y-86588600D01*
X163066100Y-66283600D02*
X163066100Y-70118600D01*
X178346100Y-79286100D02*
X178346100Y-81826100D01*
X138976100Y-57378600D02*
X138976100Y-66243600D01*
X119926100Y-110401100D02*
X114528600Y-105003600D01*
X133896100Y-71323600D02*
X133896100Y-71348500D01*
X158343600Y-74841100D02*
X158343600Y-78651200D01*
X180092300Y-77539900D02*
X178346100Y-79286100D01*
X133896100Y-71348500D02*
X133896100Y-76746100D01*
X114528600Y-105003600D02*
X114528600Y-94049800D01*
X128221100Y-91366100D02*
X128221100Y-92661100D01*
X178346100Y-81826100D02*
X179616100Y-83096100D01*
D23*
X128221100Y-86588600D02*
X128181100Y-86588600D01*
D25*
X117386100Y-91192300D02*
X117386100Y-83096100D01*
X112941100Y-62141100D02*
X112941100Y-57378600D01*
X128221100Y-92661100D02*
X129451100Y-93891100D01*
X163106100Y-64998600D02*
X163066100Y-65038600D01*
X181203600Y-65316100D02*
X180092300Y-66427300D01*
X179616100Y-83096100D02*
X179616100Y-90398500D01*
X163344300Y-70158000D02*
X164534900Y-71348600D01*
X118973600Y-81508600D02*
X118973600Y-79286100D01*
X117703600Y-66903600D02*
X115798600Y-64998600D01*
X179616100Y-90398500D02*
X182473600Y-93256000D01*
X163066100Y-70118600D02*
X163026700Y-70158000D01*
X145961100Y-99923600D02*
X145961100Y-108153600D01*
X163741100Y-91326100D02*
X163781100Y-91366100D01*
X128221100Y-86588600D02*
X128221100Y-91366100D01*
X163106100Y-57378600D02*
X163106100Y-64998600D01*
X163026700Y-70158000D02*
X163344300Y-70158000D01*
X138976100Y-66243600D02*
X138936100Y-66283600D01*
X114528600Y-94049800D02*
X117386100Y-91192300D01*
X117703600Y-78016100D02*
X117703600Y-66903600D01*
X182473600Y-93256000D02*
X182473600Y-105003600D01*
X158343600Y-78651200D02*
X163741100Y-84048700D01*
X145961100Y-108153600D02*
X146001100Y-108193600D01*
X138936100Y-66283600D02*
X133896100Y-71323600D01*
X182473600Y-105003600D02*
X177076100Y-110401100D01*
X117386100Y-83096100D02*
X118973600Y-81508600D01*
X180092300Y-66427300D02*
X180092300Y-77539900D01*
X115798600Y-64998600D02*
X112941100Y-62141100D01*
X119926100Y-114846100D02*
X119926100Y-110401100D01*
X163741100Y-86588600D02*
X169932400Y-86588600D01*
X129451100Y-93891100D02*
X139928600Y-93891100D01*
X182791100Y-57378600D02*
X182791100Y-63728600D01*
X128221100Y-82421100D02*
X128221100Y-86588600D01*
X163066100Y-65038600D02*
X163066100Y-66283600D01*
X163026700Y-70158000D02*
X158343600Y-74841100D01*
D22*
%TO.N,VEE*%
X149136100Y-55156100D02*
X149136100Y-64998600D01*
X126593600Y-72936100D02*
X126276100Y-72618600D01*
X134213600Y-97701100D02*
X134213600Y-96431100D01*
X128181100Y-118338600D02*
X131356100Y-115163600D01*
X169614800Y-117227300D02*
X181203600Y-117227300D01*
X167551100Y-108813600D02*
X166916100Y-108813600D01*
X174694700Y-95002300D02*
X171837300Y-95002300D01*
X121196100Y-89763600D02*
X121196100Y-83096100D01*
D24*
X131356100Y-108813600D02*
X130721100Y-108813600D01*
D22*
X126593600Y-75793600D02*
X126593600Y-72936100D01*
X167551100Y-108813600D02*
X167551100Y-115163600D01*
X124371100Y-92938600D02*
X121196100Y-89763600D01*
X125958600Y-78333600D02*
X125958600Y-76428600D01*
X128181100Y-70713600D02*
X128181100Y-60553600D01*
X125641100Y-92938600D02*
X124371100Y-92938600D01*
X149136100Y-64998600D02*
X149136100Y-68491100D01*
X170726100Y-96113600D02*
X170726100Y-98812300D01*
D24*
X149136100Y-64998600D02*
X152628600Y-64998600D01*
D22*
X131356100Y-115163600D02*
X131356100Y-108813600D01*
X124371100Y-92938600D02*
X124371100Y-93891100D01*
X179616000Y-96272200D02*
X179616200Y-96272200D01*
X121196100Y-83096100D02*
X125958600Y-78333600D01*
X126276100Y-72618600D02*
X128181100Y-70713600D01*
X126593600Y-58013600D02*
X129451100Y-55156100D01*
X177711100Y-95319800D02*
X175012200Y-95319800D01*
X132308600Y-99606100D02*
X134213600Y-97701100D01*
X128181100Y-60553600D02*
X126593600Y-58966100D01*
X185331000Y-115004800D02*
X186601100Y-116274900D01*
X152311100Y-71666100D02*
X152311100Y-78651100D01*
X168503600Y-55156100D02*
X172313600Y-58966100D01*
X177711100Y-83413600D02*
X177711100Y-95319800D01*
X149136100Y-68491100D02*
X152311100Y-71666100D01*
X186601100Y-116274900D02*
X186601100Y-118021100D01*
X126593600Y-58966100D02*
X126593600Y-58013600D01*
X172631100Y-78333600D02*
X177711100Y-83413600D01*
X114211100Y-118338600D02*
X128181100Y-118338600D01*
X175012200Y-95319800D02*
X174694700Y-95002300D01*
X125958600Y-76428600D02*
X126593600Y-75793600D01*
X178663600Y-96272300D02*
X179615900Y-96272300D01*
X181203600Y-117227300D02*
X183426000Y-115004800D01*
X173901100Y-58966100D02*
X176917300Y-61982300D01*
X176917300Y-67379900D02*
X171678600Y-72618600D01*
X131356100Y-102622300D02*
X132308600Y-101669800D01*
X172631100Y-76428600D02*
X172631100Y-78333600D01*
X167551100Y-115163600D02*
X169614800Y-117227300D01*
X170726100Y-98812300D02*
X167551100Y-101987300D01*
X171678600Y-72618600D02*
X171678600Y-75476100D01*
X171837300Y-95002300D02*
X170726100Y-96113600D01*
X134213600Y-96431100D02*
X134531100Y-96113600D01*
X177711100Y-95319800D02*
X178663600Y-96272300D01*
X157708600Y-84048600D02*
X157708600Y-89446100D01*
X152311100Y-78651100D02*
X157708600Y-84048600D01*
X176917300Y-61982300D02*
X176917300Y-67379900D01*
X171678600Y-75476100D02*
X172631100Y-76428600D01*
X172313600Y-58966100D02*
X173901100Y-58966100D01*
X131356100Y-108813600D02*
X131356100Y-102622300D01*
X132308600Y-99606100D02*
X125641100Y-92938600D01*
X167551100Y-101987300D02*
X167551100Y-108813600D01*
X179615900Y-96272300D02*
X179616000Y-96272200D01*
X183426000Y-115004800D02*
X185331000Y-115004800D01*
X132308600Y-101669800D02*
X132308600Y-99606100D01*
D25*
%TO.N,AREF_+5*%
X186918600Y-82461100D02*
X189141100Y-84683600D01*
X188823600Y-108178600D02*
X187211100Y-108178600D01*
X108178600Y-106591100D02*
X108178600Y-103098600D01*
X108178600Y-103098600D02*
X109448600Y-101828600D01*
X109448600Y-100241100D02*
X107861100Y-98653600D01*
X187236100Y-56426100D02*
X187236100Y-68148600D01*
X114806100Y-65911100D02*
X111353600Y-62458600D01*
X140881100Y-62617300D02*
X140881100Y-74999900D01*
X187196100Y-101629900D02*
X188823600Y-103257400D01*
X107861100Y-86588600D02*
X114806100Y-79643600D01*
X111353600Y-56506100D02*
X111313600Y-56466100D01*
X186918600Y-68466100D02*
X186918600Y-82461100D01*
X108178600Y-125857000D02*
X108178600Y-106591100D01*
X187236100Y-68148600D02*
X187196100Y-68188600D01*
X111353600Y-62458600D02*
X111353600Y-56506100D01*
X114211100Y-106591100D02*
X114846100Y-107226100D01*
X143421100Y-60077300D02*
X140881100Y-62617300D01*
X188823600Y-103257400D02*
X188823600Y-108178600D01*
X114846100Y-107226100D02*
X114846100Y-108153600D01*
X187211100Y-108178600D02*
X187196100Y-108193600D01*
X143421100Y-56426100D02*
X143421100Y-60077300D01*
X187196100Y-99963600D02*
X187196100Y-101629900D01*
X188823600Y-125984000D02*
X187680600Y-127127000D01*
X189141100Y-84683600D02*
X189141100Y-98018600D01*
X114806100Y-68188600D02*
X114806100Y-65911100D01*
X109575600Y-127254000D02*
X108178600Y-125857000D01*
X107861100Y-98653600D02*
X107861100Y-86588600D01*
X114846100Y-108153600D02*
X114806100Y-108193600D01*
X189141100Y-98018600D02*
X187196100Y-99963600D01*
X188823600Y-108178600D02*
X188823600Y-125984000D01*
X108178600Y-106591100D02*
X114211100Y-106591100D01*
X111313600Y-56466100D02*
X111353600Y-56426100D01*
X114806100Y-79643600D02*
X114806100Y-68188600D01*
X109448600Y-101828600D02*
X109448600Y-100241100D01*
X187196100Y-68188600D02*
X186918600Y-68466100D01*
%TD*%
M02*
