%TF.GenerationSoftware,KiCad,Pcbnew,7.0.1*%
%TF.CreationDate,2023-04-05T17:19:15+02:00*%
%TF.ProjectId,blades_v40,626c6164-6573-45f7-9634-302e6b696361,rev?*%
%TF.SameCoordinates,Original*%
%TF.FileFunction,Soldermask,Bot*%
%TF.FilePolarity,Negative*%
%FSLAX46Y46*%
G04 Gerber Fmt 4.6, Leading zero omitted, Abs format (unit mm)*
G04 Created by KiCad (PCBNEW 7.0.1) date 2023-04-05 17:19:15*
%MOMM*%
%LPD*%
G01*
G04 APERTURE LIST*
G04 Aperture macros list*
%AMRoundRect*
0 Rectangle with rounded corners*
0 $1 Rounding radius*
0 $2 $3 $4 $5 $6 $7 $8 $9 X,Y pos of 4 corners*
0 Add a 4 corners polygon primitive as box body*
4,1,4,$2,$3,$4,$5,$6,$7,$8,$9,$2,$3,0*
0 Add four circle primitives for the rounded corners*
1,1,$1+$1,$2,$3*
1,1,$1+$1,$4,$5*
1,1,$1+$1,$6,$7*
1,1,$1+$1,$8,$9*
0 Add four rect primitives between the rounded corners*
20,1,$1+$1,$2,$3,$4,$5,0*
20,1,$1+$1,$4,$5,$6,$7,0*
20,1,$1+$1,$6,$7,$8,$9,0*
20,1,$1+$1,$8,$9,$2,$3,0*%
%AMFreePoly0*
4,1,25,0.555211,1.340400,0.579933,1.323882,1.323882,0.579933,1.340400,0.555211,1.346200,0.526051,1.346200,-0.526051,1.340400,-0.555211,1.323882,-0.579933,0.579933,-1.323882,0.555211,-1.340400,0.526051,-1.346200,-0.526051,-1.346200,-0.555211,-1.340400,-0.579933,-1.323882,-1.323882,-0.579933,-1.340400,-0.555211,-1.346200,-0.526051,-1.346200,0.526051,-1.340400,0.555211,-1.323882,0.579933,
-0.579933,1.323882,-0.555211,1.340400,-0.526051,1.346200,0.526051,1.346200,0.555211,1.340400,0.555211,1.340400,$1*%
%AMFreePoly1*
4,1,25,0.397396,0.959400,0.422118,0.942882,0.942882,0.422118,0.959400,0.397396,0.965200,0.368236,0.965200,-0.368236,0.959400,-0.397396,0.942882,-0.422118,0.422118,-0.942882,0.397396,-0.959400,0.368236,-0.965200,-0.368236,-0.965200,-0.397396,-0.959400,-0.422118,-0.942882,-0.942882,-0.422118,-0.959400,-0.397396,-0.965200,-0.368236,-0.965200,0.368236,-0.959400,0.397396,-0.942882,0.422118,
-0.422118,0.942882,-0.397396,0.959400,-0.368236,0.965200,0.368236,0.965200,0.397396,0.959400,0.397396,0.959400,$1*%
%AMFreePoly2*
4,1,25,0.281665,0.680000,0.306387,0.663482,0.663482,0.306387,0.680000,0.281665,0.685800,0.252505,0.685800,-0.252505,0.680000,-0.281665,0.663482,-0.306387,0.306387,-0.663482,0.281665,-0.680000,0.252505,-0.685800,-0.252505,-0.685800,-0.281665,-0.680000,-0.306387,-0.663482,-0.663482,-0.306387,-0.680000,-0.281665,-0.685800,-0.252505,-0.685800,0.252505,-0.680000,0.281665,-0.663482,0.306387,
-0.306387,0.663482,-0.281665,0.680000,-0.252505,0.685800,0.252505,0.685800,0.281665,0.680000,0.281665,0.680000,$1*%
%AMFreePoly3*
4,1,25,0.258303,0.623600,0.283025,0.607082,0.607082,0.283025,0.623600,0.258303,0.629400,0.229143,0.629400,-0.229143,0.623600,-0.258303,0.607082,-0.283025,0.283025,-0.607082,0.258303,-0.623600,0.229143,-0.629400,-0.229143,-0.629400,-0.258303,-0.623600,-0.283025,-0.607082,-0.607082,-0.283025,-0.623600,-0.258303,-0.629400,-0.229143,-0.629400,0.229143,-0.623600,0.258303,-0.607082,0.283025,
-0.283025,0.607082,-0.258303,0.623600,-0.229143,0.629400,0.229143,0.629400,0.258303,0.623600,0.258303,0.623600,$1*%
%AMFreePoly4*
4,1,25,0.418438,1.010200,0.443160,0.993682,0.993682,0.443160,1.010200,0.418438,1.016000,0.389278,1.016000,-0.389278,1.010200,-0.418438,0.993682,-0.443160,0.443160,-0.993682,0.418438,-1.010200,0.389278,-1.016000,-0.389278,-1.016000,-0.418438,-1.010200,-0.443160,-0.993682,-0.993682,-0.443160,-1.010200,-0.418438,-1.016000,-0.389278,-1.016000,0.389278,-1.010200,0.418438,-0.993682,0.443160,
-0.443160,0.993682,-0.418438,1.010200,-0.389278,1.016000,0.389278,1.016000,0.418438,1.010200,0.418438,1.010200,$1*%
G04 Aperture macros list end*
%ADD10RoundRect,0.076200X0.939800X-0.939800X0.939800X0.939800X-0.939800X0.939800X-0.939800X-0.939800X0*%
%ADD11FreePoly0,90.000000*%
%ADD12O,2.152400X4.152400*%
%ADD13C,2.500000*%
%ADD14FreePoly1,180.000000*%
%ADD15FreePoly2,0.000000*%
%ADD16FreePoly2,180.000000*%
%ADD17FreePoly3,0.000000*%
%ADD18C,1.502400*%
%ADD19C,1.168400*%
%ADD20FreePoly4,180.000000*%
G04 APERTURE END LIST*
D10*
%TO.C,R86*%
X133221100Y-91366100D03*
X130721100Y-91366100D03*
X128221100Y-91366100D03*
D11*
X135421100Y-84366100D03*
X126021100Y-84366100D03*
%TD*%
D10*
%TO.C,R179*%
X151001100Y-127896100D03*
X148501100Y-127896100D03*
X146001100Y-127896100D03*
D12*
X152901100Y-121196100D03*
X144101100Y-121196100D03*
%TD*%
D10*
%TO.C,R181*%
X175131100Y-127896100D03*
X172631100Y-127896100D03*
X170131100Y-127896100D03*
D12*
X177031100Y-121196100D03*
X168231100Y-121196100D03*
%TD*%
D13*
%TO.C,J6*%
X148501100Y-137071100D03*
D14*
X148501100Y-131038600D03*
X148501100Y-133737300D03*
X148501100Y-141674900D03*
%TD*%
D10*
%TO.C,R178*%
X138936100Y-127896100D03*
X136436100Y-127896100D03*
X133936100Y-127896100D03*
D12*
X140836100Y-121196100D03*
X132036100Y-121196100D03*
%TD*%
D10*
%TO.C,R81*%
X187196100Y-87256000D03*
X184696100Y-87256000D03*
X182196100Y-87256000D03*
D12*
X189096100Y-80556000D03*
X180296100Y-80556000D03*
%TD*%
D13*
%TO.C,J7*%
X160566100Y-137071100D03*
D14*
X160566100Y-131038600D03*
X160566100Y-133737300D03*
X160566100Y-141674900D03*
%TD*%
D13*
%TO.C,J13*%
X148501100Y-151676100D03*
D14*
X148501100Y-145643600D03*
X148501100Y-148342300D03*
X148501100Y-156279900D03*
%TD*%
D10*
%TO.C,R80*%
X114806100Y-87256000D03*
X112306100Y-87256000D03*
X109806100Y-87256000D03*
D12*
X116706100Y-80556000D03*
X107906100Y-80556000D03*
%TD*%
D10*
%TO.C,R18*%
X187196100Y-68188600D03*
X184696100Y-68188600D03*
X182196100Y-68188600D03*
D11*
X189396100Y-61188600D03*
X179996100Y-61188600D03*
%TD*%
D13*
%TO.C,J12*%
X136436100Y-151676100D03*
D14*
X136436100Y-145643600D03*
X136436100Y-148342300D03*
X136436100Y-156279900D03*
%TD*%
D15*
%TO.C,LED2*%
X171678500Y-55156100D03*
X174218500Y-55156100D03*
%TD*%
D10*
%TO.C,R127*%
X114806100Y-108193600D03*
X112306100Y-108193600D03*
X109806100Y-108193600D03*
D11*
X117006100Y-101193600D03*
X107606100Y-101193600D03*
%TD*%
D13*
%TO.C,J10*%
X112306100Y-151676100D03*
D14*
X112306100Y-145643600D03*
X112306100Y-148342300D03*
X112306100Y-156279900D03*
%TD*%
D13*
%TO.C,J15*%
X172631100Y-151676100D03*
D14*
X172631100Y-145643600D03*
X172631100Y-148342300D03*
X172631100Y-156279900D03*
%TD*%
D16*
%TO.C,LED1*%
X125323600Y-55156100D03*
X122783600Y-55156100D03*
%TD*%
D10*
%TO.C,R130*%
X187196100Y-108193600D03*
X184696100Y-108193600D03*
X182196100Y-108193600D03*
D11*
X189396100Y-101193600D03*
X179996100Y-101193600D03*
%TD*%
D10*
%TO.C,R177*%
X126871100Y-127896100D03*
X124371100Y-127896100D03*
X121871100Y-127896100D03*
D12*
X128771100Y-121196100D03*
X119971100Y-121196100D03*
%TD*%
D13*
%TO.C,J2*%
X184696100Y-122466100D03*
D14*
X184696100Y-116433600D03*
X184696100Y-119132300D03*
X184696100Y-127069900D03*
%TD*%
D13*
%TO.C,J1*%
X112306100Y-122466100D03*
D14*
X112306100Y-116433600D03*
X112306100Y-119132300D03*
X112306100Y-127069900D03*
%TD*%
D13*
%TO.C,J5*%
X136436100Y-137071100D03*
D14*
X136436100Y-131038600D03*
X136436100Y-133737300D03*
X136436100Y-141674900D03*
%TD*%
D10*
%TO.C,R17*%
X114806100Y-68188600D03*
X112306100Y-68188600D03*
X109806100Y-68188600D03*
D11*
X117006100Y-61188600D03*
X107606100Y-61188600D03*
%TD*%
D13*
%TO.C,J3*%
X112306100Y-137071100D03*
D14*
X112306100Y-131038600D03*
X112306100Y-133737300D03*
X112306100Y-141674900D03*
%TD*%
D10*
%TO.C,R128*%
X151001100Y-108193600D03*
X148501100Y-108193600D03*
X146001100Y-108193600D03*
D11*
X153201100Y-101193600D03*
X143801100Y-101193600D03*
%TD*%
D13*
%TO.C,J14*%
X160566100Y-151676100D03*
D14*
X160566100Y-145643600D03*
X160566100Y-148342300D03*
X160566100Y-156279900D03*
%TD*%
D13*
%TO.C,J16*%
X184696100Y-151676100D03*
D14*
X184696100Y-145643600D03*
X184696100Y-148342300D03*
X184696100Y-156279900D03*
%TD*%
D10*
%TO.C,R180*%
X163066100Y-127896100D03*
X160566100Y-127896100D03*
X158066100Y-127896100D03*
D12*
X164966100Y-121196100D03*
X156166100Y-121196100D03*
%TD*%
D13*
%TO.C,J9*%
X184696100Y-137071100D03*
D14*
X184696100Y-131038600D03*
X184696100Y-133737300D03*
X184696100Y-141674900D03*
%TD*%
D10*
%TO.C,R87*%
X168781100Y-91366100D03*
X166281100Y-91366100D03*
X163781100Y-91366100D03*
D11*
X170981100Y-84366100D03*
X161581100Y-84366100D03*
%TD*%
D13*
%TO.C,J11*%
X124371100Y-151676100D03*
D14*
X124371100Y-145643600D03*
X124371100Y-148342300D03*
X124371100Y-156279900D03*
%TD*%
D10*
%TO.C,R14*%
X138936100Y-66283600D03*
X136436100Y-66283600D03*
X133936100Y-66283600D03*
D11*
X141136100Y-59283600D03*
X131736100Y-59283600D03*
%TD*%
D17*
%TO.C,SW1*%
X153501100Y-74841100D03*
X143501100Y-74841100D03*
D18*
X151001100Y-72341100D03*
X148501100Y-72341100D03*
X146001100Y-72341100D03*
X151001100Y-77341100D03*
X148501100Y-77341100D03*
X146001100Y-77341100D03*
%TD*%
D13*
%TO.C,J4*%
X124371100Y-137071100D03*
D14*
X124371100Y-131038600D03*
X124371100Y-133737300D03*
X124371100Y-141674900D03*
%TD*%
D13*
%TO.C,J8*%
X172631100Y-137071100D03*
D14*
X172631100Y-131038600D03*
X172631100Y-133737300D03*
X172631100Y-141674900D03*
%TD*%
D10*
%TO.C,R15*%
X163066100Y-66283600D03*
X160566100Y-66283600D03*
X158066100Y-66283600D03*
D11*
X165266100Y-59283600D03*
X155866100Y-59283600D03*
%TD*%
D19*
%TO.C,R195*%
X157232400Y-98653600D03*
X157232400Y-101193600D03*
X157232400Y-103733600D03*
%TD*%
%TO.C,R139*%
X151041100Y-112306100D03*
X148501100Y-112306100D03*
X145961100Y-112306100D03*
%TD*%
D20*
%TO.C,JP1*%
X153581100Y-85953600D03*
X153581100Y-83413600D03*
X151041100Y-85953600D03*
X151041100Y-83413600D03*
X148501100Y-85953600D03*
X148501100Y-83413600D03*
X145961100Y-85953600D03*
X145961100Y-83413600D03*
X143421100Y-85953600D03*
X143421100Y-83413600D03*
%TD*%
D19*
%TO.C,R198*%
X137864900Y-74999700D03*
X135324900Y-74999700D03*
X132784900Y-74999700D03*
%TD*%
%TO.C,R196*%
X139769800Y-98653500D03*
X139769800Y-101193500D03*
X139769800Y-103733500D03*
%TD*%
M02*
