M48
; DRILL file {KiCad 7.0.1} date Tue Apr  4 14:40:52 2023
; FORMAT={-:-/ absolute / inch / decimal}
; #@! TF.CreationDate,2023-04-04T14:40:52+02:00
; #@! TF.GenerationSoftware,Kicad,Pcbnew,7.0.1
; #@! TF.FileFunction,Plated,1,4,PTH
FMAT,2
INCH
; #@! TA.AperFunction,Plated,PTH,ViaDrill
T1C0.0118
; #@! TA.AperFunction,Plated,PTH,ViaDrill
T2C0.0197
; #@! TA.AperFunction,Plated,PTH,ComponentDrill
T3C0.0240
; #@! TA.AperFunction,Plated,PTH,ComponentDrill
T4C0.0276
; #@! TA.AperFunction,Plated,PTH,ComponentDrill
T5C0.0320
; #@! TA.AperFunction,Plated,PTH,ComponentDrill
T6C0.0354
; #@! TA.AperFunction,Plated,PTH,ComponentDrill
T7C0.0394
; #@! TA.AperFunction,Plated,PTH,ComponentDrill
T8C0.0400
; #@! TA.AperFunction,Plated,PTH,ComponentDrill
T9C0.0472
; #@! TA.AperFunction,Plated,PTH,ComponentDrill
T10C0.0591
%
G90
G05
T1
X4.1403Y-3.6215
X4.1403Y-4.4215
X4.159Y-3.509
X4.184Y-3.2777
X4.2965Y-3.3027
X4.3215Y-2.4777
X4.3215Y-3.859
X4.4028Y-3.7528
X4.4152Y-3.9152
X4.4153Y-3.809
X4.4403Y-4.3965
X4.4403Y-4.4902
X4.4715Y-3.1277
X4.484Y-2.8653
X4.4965Y-2.409
X4.534Y-2.4777
X4.5528Y-3.709
X4.559Y-3.559
X4.584Y-5.684
X4.6278Y-4.2027
X4.6402Y-4.434
X4.6715Y-4.2027
X4.684Y-4.434
X4.6965Y-3.034
X4.7028Y-4.1152
X4.7215Y-3.0715
X4.7215Y-4.0715
X4.7215Y-4.3465
X4.7215Y-4.5215
X4.7215Y-5.684
X4.7278Y-3.8277
X4.7527Y-2.659
X4.7715Y-2.909
X4.7965Y-3.8277
X4.7965Y-3.8715
X4.8153Y-4.0965
X4.834Y-3.934
X4.834Y-3.984
X4.8403Y-3.784
X4.8403Y-4.3902
X4.909Y-3.559
X4.9152Y-3.9715
X4.9153Y-3.0277
X4.9215Y-2.759
X4.9465Y-4.7215
X4.9559Y-4.1621
X4.959Y-4.284
X4.959Y-2.3653
X4.959Y-4.059
X4.9715Y-2.7402
X4.9715Y-4.434
X4.9965Y-3.509
X5.034Y-3.084
X5.0465Y-3.8965
X5.134Y-3.459
X5.134Y-4.4527
X5.1402Y-2.7028
X5.159Y-3.7652
X5.1903Y-2.409
X5.1903Y-3.7965
X5.2153Y-2.6903
X5.2715Y-2.809
X5.2965Y-4.434
X5.2965Y-4.6215
X5.359Y-3.4715
X5.3715Y-3.6465
X5.3965Y-3.8715
X5.3965Y-3.934
X5.409Y-3.984
X5.4215Y-4.1465
X5.4278Y-3.7902
X5.484Y-4.3902
X5.4903Y-2.809
X5.5965Y-2.5215
X5.6028Y-2.609
X5.659Y-2.7277
X5.7715Y-5.6965
X5.784Y-2.5965
X5.909Y-2.5965
X5.9215Y-5.634
X6.009Y-5.684
X6.034Y-2.7278
X6.0715Y-5.784
X6.134Y-2.7215
X6.134Y-5.6277
X6.1777Y-2.709
X6.2215Y-2.709
X6.234Y-3.834
X6.2402Y-4.3902
X6.2465Y-4.5777
X6.2652Y-3.7902
X6.2778Y-3.0465
X6.284Y-3.6715
X6.2965Y-3.8715
X6.3027Y-3.934
X6.3152Y-3.1277
X6.3215Y-2.9778
X6.3402Y-2.9215
X6.3715Y-4.159
X6.384Y-4.259
X6.384Y-4.6965
X6.3965Y-4.434
X6.4215Y-2.8902
X6.4215Y-2.809
X6.4528Y-2.8527
X6.4653Y-3.8965
X6.4778Y-2.809
X6.484Y-2.6965
X6.4965Y-2.9027
X6.5028Y-3.8027
X6.534Y-3.7653
X6.5465Y-3.459
X6.5528Y-3.1465
X6.559Y-4.4527
X6.5715Y-2.709
X6.5715Y-2.859
X6.6153Y-3.7965
X6.6903Y-3.409
X6.6965Y-3.534
X6.6965Y-4.5777
X6.7215Y-2.3965
X6.7215Y-2.759
X6.7215Y-4.434
X6.7278Y-4.059
X6.734Y-4.1652
X6.7465Y-3.0152
X6.7465Y-4.7215
X6.7653Y-3.959
X6.784Y-3.559
X6.7965Y-2.909
X6.8528Y-3.9277
X6.8528Y-3.9715
X6.8528Y-4.3902
X6.8778Y-4.0965
X6.8778Y-5.6278
X6.884Y-3.834
X6.884Y-3.884
X6.9028Y-3.0902
X6.9465Y-2.3528
X6.9465Y-3.834
X6.9528Y-2.809
X6.9715Y-4.0652
X6.9715Y-4.3465
X6.9778Y-3.134
X6.9903Y-4.1027
X7.009Y-2.509
X7.009Y-4.434
X7.0153Y-4.209
X7.0215Y-2.659
X7.0277Y-2.7527
X7.0527Y-4.434
X7.059Y-4.209
X7.1152Y-5.6277
X7.1153Y-2.509
X7.1402Y-3.559
X7.1465Y-3.7027
X7.1465Y-3.7465
X7.1778Y-3.084
X7.2028Y-5.684
X7.209Y-2.809
X7.2152Y-2.8653
X7.2652Y-4.4777
X7.2653Y-3.0652
X7.2653Y-4.4028
X7.2778Y-3.9152
X7.284Y-3.8278
X7.2903Y-3.7528
X7.3215Y-3.2277
X7.3715Y-3.859
X7.4152Y-2.8965
X7.4152Y-2.9903
X7.4403Y-2.509
X7.4465Y-2.7715
X7.5028Y-3.284
X7.534Y-3.5152
X7.5528Y-3.6215
T2
X4.1465Y-2.0965
X4.1465Y-2.4215
X4.1465Y-4.0215
X4.1465Y-4.8215
X4.1465Y-5.2215
X4.1465Y-5.6215
X4.1465Y-6.1715
X4.259Y-5.1715
X4.2965Y-2.159
X4.2965Y-3.7277
X4.309Y-4.6465
X4.3527Y-2.9715
X4.359Y-4.6465
X4.384Y-2.2215
X4.4465Y-2.9277
X4.4465Y-2.259
X4.4465Y-4.1215
X4.484Y-2.7652
X4.4903Y-2.1528
X4.4965Y-4.659
X4.5465Y-4.7027
X4.559Y-2.559
X4.5965Y-2.7215
X4.5965Y-3.734
X4.6777Y-2.509
X4.684Y-3.209
X4.684Y-2.1465
X4.6965Y-6.1715
X4.734Y-3.1715
X4.7528Y-3.1215
X4.7653Y-3.759
X4.7715Y-2.3528
X4.8965Y-3.6965
X4.909Y-2.3215
X4.9215Y-2.8465
X4.934Y-2.709
X4.934Y-2.934
X4.959Y-3.009
X4.959Y-3.084
X4.9715Y-2.859
X4.9715Y-3.784
X4.984Y-2.3215
X4.9965Y-2.1215
X4.9965Y-2.459
X5.009Y-3.1715
X5.0465Y-3.409
X5.0965Y-2.1715
X5.0965Y-4.534
X5.1215Y-6.1715
X5.134Y-4.6715
X5.1465Y-4.284
X5.159Y-3.934
X5.1715Y-4.534
X5.1965Y-2.9027
X5.2152Y-2.509
X5.2965Y-3.784
X5.409Y-4.2527
X5.4715Y-2.259
X5.4965Y-3.5215
X5.5215Y-6.1715
X5.5465Y-2.4652
X5.5465Y-2.9528
X5.584Y-4.6153
X5.5965Y-5.1215
X5.5965Y-2.9527
X5.6465Y-2.2215
X5.684Y-2.559
X5.7215Y-3.5715
X5.7215Y-3.634
X5.7215Y-3.6965
X5.7965Y-3.9215
X5.8715Y-2.1715
X5.9215Y-3.5715
X5.9215Y-3.634
X5.9215Y-3.709
X5.9215Y-6.1715
X5.984Y-4.5965
X5.9965Y-2.3215
X6.009Y-2.559
X6.0965Y-2.509
X6.184Y-2.9465
X6.209Y-3.5215
X6.2215Y-5.1215
X6.234Y-2.9465
X6.3965Y-3.784
X6.4215Y-2.259
X6.4465Y-3.0027
X6.4715Y-2.509
X6.509Y-2.1215
X6.5215Y-4.534
X6.559Y-4.6715
X6.5715Y-4.284
X6.584Y-2.9965
X6.584Y-3.934
X6.5965Y-4.534
X6.634Y-2.1715
X6.6652Y-2.1215
X6.709Y-2.3215
X6.7153Y-3.1965
X6.7215Y-3.784
X6.7215Y-6.1715
X6.759Y-2.859
X6.759Y-2.9715
X6.784Y-2.3215
X6.8278Y-4.284
X6.859Y-3.784
X6.909Y-3.7028
X6.9215Y-2.484
X6.9465Y-3.0215
X6.9465Y-3.3215
X6.9902Y-2.9153
X7.009Y-2.1465
X7.0215Y-3.2215
X7.0715Y-3.7902
X7.0965Y-6.1715
X7.134Y-2.5715
X7.1465Y-4.7028
X7.1903Y-4.659
X7.1965Y-2.9715
X7.1965Y-2.259
X7.1965Y-5.1215
X7.2152Y-2.1527
X7.2465Y-4.1215
X7.259Y-3.009
X7.2653Y-2.759
X7.3465Y-4.6465
X7.3715Y-2.2215
X7.3965Y-4.6465
X7.3965Y-3.7902
X7.434Y-5.1715
X7.4402Y-2.7215
X7.4652Y-2.159
X7.5465Y-2.0965
X7.5465Y-6.1715
X7.5465Y-4.0215
X7.5465Y-4.8215
X7.5465Y-5.209
X7.5465Y-5.6215
X7.5465Y-2.4215
T3
X5.2278Y-2.9527
X5.3278Y-2.9527
X5.4278Y-2.9527
X5.5027Y-3.884
X5.5027Y-3.984
X5.5027Y-4.084
X5.7465Y-4.4215
X5.8465Y-4.4215
X5.9465Y-4.4215
X6.1903Y-3.884
X6.1903Y-3.984
X6.1903Y-4.084
T4
X5.6496Y-2.9465
X6.0434Y-2.9465
T5
X4.834Y-2.1715
X4.934Y-2.1715
X6.759Y-2.1715
X6.859Y-2.1715
T6
X5.7481Y-2.8481
X5.7481Y-3.0449
X5.8465Y-2.8481
X5.8465Y-3.0449
X5.9449Y-2.8481
X5.9449Y-3.0449
T7
X4.3231Y-2.6846
X4.3231Y-3.4353
X4.3231Y-4.2596
X4.4215Y-2.6846
X4.4215Y-3.4353
X4.4215Y-4.2596
X4.4215Y-4.584
X4.4215Y-5.159
X4.4215Y-5.734
X4.5199Y-2.6846
X4.5199Y-3.4353
X4.5199Y-4.2596
X4.7981Y-5.0353
X4.8965Y-5.0353
X4.8965Y-5.159
X4.8965Y-5.734
X4.9949Y-5.0353
X5.0481Y-3.5971
X5.1465Y-3.5971
X5.2449Y-3.5971
X5.2731Y-2.6096
X5.2731Y-5.0353
X5.3715Y-2.6096
X5.3715Y-5.0353
X5.3715Y-5.159
X5.3715Y-5.734
X5.4699Y-2.6096
X5.4699Y-5.0353
X5.7481Y-4.2596
X5.7481Y-5.0353
X5.8465Y-4.2596
X5.8465Y-5.0353
X5.8465Y-5.159
X5.8465Y-5.734
X5.9449Y-4.2596
X5.9449Y-5.0353
X6.2231Y-2.6096
X6.2231Y-5.0353
X6.3215Y-2.6096
X6.3215Y-5.0353
X6.3215Y-5.159
X6.3215Y-5.734
X6.4199Y-2.6096
X6.4199Y-5.0353
X6.4481Y-3.5971
X6.5465Y-3.5971
X6.6449Y-3.5971
X6.6981Y-5.0353
X6.7965Y-5.0353
X6.7965Y-5.159
X6.7965Y-5.734
X6.8949Y-5.0353
X7.1731Y-2.6846
X7.1731Y-3.4353
X7.1731Y-4.2596
X7.2715Y-2.6846
X7.2715Y-3.4353
X7.2715Y-4.2596
X7.2715Y-4.584
X7.2715Y-5.159
X7.2715Y-5.734
X7.3699Y-2.6846
X7.3699Y-3.4353
X7.3699Y-4.2596
T8
X5.6465Y-3.284
X5.6465Y-3.384
X5.7465Y-3.284
X5.7465Y-3.384
X5.8465Y-3.284
X5.8465Y-3.384
X5.9465Y-3.284
X5.9465Y-3.384
X6.0465Y-3.284
X6.0465Y-3.384
T9
X4.2483Y-3.1715
X4.4215Y-4.6902
X4.4215Y-5.0028
X4.4215Y-5.2652
X4.4215Y-5.5778
X4.4215Y-5.8402
X4.4215Y-6.1528
X4.5947Y-3.1715
X4.7233Y-4.7715
X4.8965Y-5.2652
X4.8965Y-5.5778
X4.8965Y-5.8402
X4.8965Y-6.1528
X5.0697Y-4.7715
X5.1983Y-4.7715
X5.3715Y-5.2652
X5.3715Y-5.5778
X5.3715Y-5.8402
X5.3715Y-6.1528
X5.5447Y-4.7715
X5.6733Y-4.7715
X5.8465Y-5.2652
X5.8465Y-5.5778
X5.8465Y-5.8402
X5.8465Y-6.1528
X6.0197Y-4.7715
X6.1483Y-4.7715
X6.3215Y-5.2652
X6.3215Y-5.5778
X6.3215Y-5.8402
X6.3215Y-6.1528
X6.4947Y-4.7715
X6.6233Y-4.7715
X6.7965Y-5.2652
X6.7965Y-5.5778
X6.7965Y-5.8402
X6.7965Y-6.1528
X6.9697Y-4.7715
X7.0983Y-3.1715
X7.2715Y-4.6902
X7.2715Y-5.0028
X7.2715Y-5.2652
X7.2715Y-5.5778
X7.2715Y-5.8402
X7.2715Y-6.1528
X7.4447Y-3.1715
T10
X4.2365Y-2.409
X4.2365Y-3.984
X4.6065Y-2.409
X4.6065Y-3.984
X4.9615Y-3.3215
X5.1865Y-2.334
X5.3315Y-3.3215
X5.5565Y-2.334
X5.6615Y-3.984
X6.0315Y-3.984
X6.1365Y-2.334
X6.3615Y-3.3215
X6.5065Y-2.334
X6.7315Y-3.3215
X7.0865Y-2.409
X7.0865Y-3.984
X7.4565Y-2.409
X7.4565Y-3.984
T0
M30
